<svg xmlns="http://www.w3.org/2000/svg" xmlns:xlink="http://www.w3.org/1999/xlink" width="69" height="69" viewBox="0 0 69 69"><defs><linearGradient id="a" y1="1" x2="1" y2="1" gradientUnits="objectBoundingBox"><stop offset="0" stop-color="#f15a29"/><stop offset="1" stop-color="#f7941d"/></linearGradient></defs><rect width="69" height="69" fill="none"/><g transform="translate(2.165 -12.688)"><path d="M62.775,30.136h-14.4V18.895A1.9,1.9,0,0,0,46.481,17H1.895A1.9,1.9,0,0,0,0,18.895V67.9a9.484,9.484,0,0,0,9.473,9.473H55.2A9.484,9.484,0,0,0,64.669,67.9V32.031A1.9,1.9,0,0,0,62.775,30.136Zm-53.3,43.45A5.69,5.69,0,0,1,3.789,67.9V20.789h40.8c0,50.077-.024,47.293.043,48.007a9.443,9.443,0,0,0,1.856,4.79ZM60.88,67.9A5.69,5.69,0,0,1,55.2,73.586H54.06A5.69,5.69,0,0,1,48.376,67.9V33.925h12.5Z" fill="#0962cc"/><path d="M95.188,89H66.895a1.895,1.895,0,0,0,0,3.789H95.188a1.895,1.895,0,0,0,0-3.789Z" transform="translate(-56.79 -62.906)" fill="url(#a)"/><path d="M95.188,153H66.895a1.895,1.895,0,1,0,0,3.789H95.188a1.895,1.895,0,1,0,0-3.789Z" transform="translate(-56.79 -118.822)" fill="url(#a)"/><path d="M95.188,393H66.895a1.895,1.895,0,0,0,0,3.789H95.188a1.895,1.895,0,0,0,0-3.789Z" transform="translate(-56.79 -328.508)" fill="url(#a)"/><path d="M193.041,217H178.895A1.9,1.9,0,0,0,177,218.895v14.146a1.9,1.9,0,0,0,1.895,1.895h14.146a1.9,1.9,0,0,0,1.895-1.895V218.895A1.9,1.9,0,0,0,193.041,217Zm-1.895,14.146H180.789V220.789h10.357Z" transform="translate(-154.644 -174.738)" fill="#0962cc"/><path d="M66.895,244.789h6.063a1.895,1.895,0,1,0,0-3.789H66.895a1.895,1.895,0,1,0,0,3.789Z" transform="translate(-56.79 -195.707)" fill="#0962cc"/><path d="M66.895,308.789h6.063a1.895,1.895,0,0,0,0-3.789H66.895a1.895,1.895,0,0,0,0,3.789Z" transform="translate(-56.79 -251.623)" fill="#0962cc"/></g></svg>