<svg xmlns="http://www.w3.org/2000/svg" xmlns:xlink="http://www.w3.org/1999/xlink" width="82.32" height="64.67" viewBox="0 0 82.32 64.67"><defs><linearGradient id="a" y1="0.5" x2="1" y2="0.5" gradientUnits="objectBoundingBox"><stop offset="0" stop-color="#f15a29"/><stop offset="1" stop-color="#f7941d"/></linearGradient></defs><g transform="translate(-919.69 -218.2)"><g fill="url(#a)"><path d="M 981.020263671875 281.3699951171875 L 981.010009765625 281.3699951171875 C 979.6365356445313 281.3699951171875 978.393310546875 280.5085144042969 977.9152221679688 279.2258911132813 L 971.4585571289063 262.124755859375 L 971.2599487304688 261.6085205078125 L 971.256591796875 261.5997314453125 L 971.2532958984375 261.5908813476563 L 971.0552368164063 261.0558471679688 L 969.727294921875 257.5414123535156 L 969.5186767578125 256.9950866699219 L 969.5176391601563 256.9923706054688 L 969.5166015625 256.9896240234375 L 969.3165893554688 256.4596252441406 L 964.9104614257813 244.784423828125 L 960.7455444335938 257.5066833496094 L 960.7423706054688 257.516357421875 L 960.7390747070313 257.5260009765625 C 960.2794189453125 258.8681945800781 959.0219116210938 259.7699890136719 957.6099853515625 259.7699890136719 L 948.6099853515625 259.7699890136719 L 947.1099853515625 259.7699890136719 L 947.1099853515625 258.2699890136719 L 947.1099853515625 254.6699981689453 L 947.1099853515625 253.1699981689453 L 948.6099853515625 253.1699981689453 L 955.230712890625 253.1699981689453 L 961.7177734375 233.8133392333984 C 962.1544189453125 232.5033721923828 963.3815307617188 231.5970916748047 964.7705078125 231.5605163574219 L 964.790283203125 231.5599975585938 L 964.8099975585938 231.5599975585938 L 964.8200073242188 231.5599975585938 C 966.1887817382813 231.5599975585938 967.428955078125 232.423095703125 967.9061279296875 233.7077026367188 L 974.7155151367188 251.9760894775391 L 974.9244995117188 252.5332641601563 L 974.927490234375 252.5413208007813 L 974.930419921875 252.5494232177734 L 975.1378173828125 253.1223449707031 L 976.5052490234375 256.785400390625 L 976.70556640625 257.3262939453125 L 976.9144897460938 257.8832702636719 L 981.0977172851563 269.1095275878906 L 986.974365234375 255.2053527832031 C 987.4719848632813 253.9872894287109 988.68994140625 253.1699981689453 990.010009765625 253.1699981689453 L 999.010009765625 253.1699981689453 L 1000.510009765625 253.1699981689453 L 1000.510009765625 254.6699981689453 L 1000.510009765625 258.2699890136719 L 1000.510009765625 259.7699890136719 L 999.010009765625 259.7699890136719 L 992.21923828125 259.7699890136719 L 984.05419921875 279.327880859375 C 983.5433959960938 280.5503234863281 982.3566284179688 281.3516845703125 981.0305786132813 281.3698425292969 L 981.020263671875 281.3699951171875 Z" stroke="none"/><path d="M 964.8099975585938 233.0599975585938 C 964.0499877929688 233.0800170898438 963.3800048828125 233.5700073242188 963.1400146484375 234.2899780273438 L 956.3099975585938 254.6699829101563 L 948.6099853515625 254.6699829101563 L 948.6099853515625 258.2699890136719 L 957.6099853515625 258.2699890136719 C 958.3900146484375 258.2699890136719 959.0700073242188 257.7699890136719 959.3200073242188 257.0400085449219 L 964.8099975585938 240.27001953125 L 970.719970703125 255.9299926757813 L 970.9199829101563 256.4599914550781 L 971.1300048828125 257.010009765625 L 972.4600219726563 260.5299987792969 L 972.6599731445313 261.0700073242188 L 972.8599853515625 261.5899963378906 L 979.3200073242188 278.7000122070313 C 979.5800170898438 279.3999938964844 980.25 279.8699951171875 981.010009765625 279.8699951171875 C 981.739990234375 279.8599853515625 982.3900146484375 279.4200134277344 982.6699829101563 278.75 L 991.219970703125 258.2699890136719 L 999.010009765625 258.2699890136719 L 999.010009765625 254.6699829101563 L 990.010009765625 254.6699829101563 C 989.2899780273438 254.6699829101563 988.6300048828125 255.1099853515625 988.3599853515625 255.7799987792969 L 981.010009765625 273.1700134277344 L 975.510009765625 258.4100036621094 L 975.2999877929688 257.8500061035156 L 975.0999755859375 257.3099975585938 L 973.72998046875 253.6400146484375 L 973.52001953125 253.0599975585938 L 973.3099975585938 252.5 L 966.5 234.22998046875 C 966.239990234375 233.5299987792969 965.5700073242188 233.0599975585938 964.8200073242188 233.0599975585938 L 964.8099975585938 233.0599975585938 M 964.7705078125 230.0599975585938 L 964.8099975585938 230.0599975585938 L 964.8200073242188 230.0599975585938 C 966.8125610351563 230.0599975585938 968.6178588867188 231.3159790039063 969.312255859375 233.1853637695313 L 976.12060546875 251.4510192871094 L 976.3289794921875 252.0065307617188 L 976.3350219726563 252.0226745605469 L 976.3408813476563 252.0388793945313 L 976.5455932617188 252.6043395996094 L 977.9105224609375 256.2608032226563 L 977.911865234375 256.264404296875 L 977.9132080078125 256.2680358886719 L 978.1116943359375 256.8039245605469 L 978.3189697265625 257.3565673828125 L 978.320068359375 257.3594970703125 L 978.3211669921875 257.3624877929688 L 981.1854248046875 265.049072265625 L 985.5892944335938 254.6295166015625 C 985.9486694335938 253.7542419433594 986.5551147460938 253.0123901367188 987.3446655273438 252.4825744628906 C 988.1369018554688 251.9509887695313 989.05859375 251.6699829101563 990.010009765625 251.6699829101563 L 999.010009765625 251.6699829101563 L 1002.010009765625 251.6699829101563 L 1002.010009765625 254.6699829101563 L 1002.010009765625 258.2699890136719 L 1002.010009765625 261.2699890136719 L 999.010009765625 261.2699890136719 L 993.2184448242188 261.2699890136719 L 985.4384155273438 279.90576171875 C 984.6969604492188 281.6802368164063 982.9749755859375 282.8433227539063 981.0511474609375 282.8697204589844 L 981.0305786132813 282.8699951171875 L 981.010009765625 282.8699951171875 C 979.0145263671875 282.8699951171875 977.2077026367188 281.617919921875 976.510986328125 279.7532348632813 L 970.0565185546875 262.6580810546875 L 969.8599853515625 262.1470031738281 L 969.8532104492188 262.12939453125 L 969.8466796875 262.1117553710938 L 969.6500854492188 261.5809020996094 L 968.3261108398438 258.0768432617188 L 968.1173706054688 257.5301818847656 L 968.1152954101563 257.5247192382813 L 968.1132202148438 257.5192565917969 L 967.9132080078125 256.9892578125 L 965.0108642578125 249.2988586425781 L 962.171142578125 257.973388671875 L 962.164794921875 257.9927368164063 L 962.158203125 258.0120239257813 C 961.4907836914063 259.960693359375 959.6630249023438 261.2699890136719 957.6099853515625 261.2699890136719 L 948.6099853515625 261.2699890136719 L 945.6099853515625 261.2699890136719 L 945.6099853515625 258.2699890136719 L 945.6099853515625 254.6699829101563 L 945.6099853515625 251.6699829101563 L 948.6099853515625 251.6699829101563 L 954.1514282226563 251.6699829101563 L 960.2955322265625 233.3367004394531 C 960.9302368164063 231.4324035644531 962.71337890625 230.1141967773438 964.7310180664063 230.06103515625 L 964.7705078125 230.0599975585938 Z" stroke="none" fill="#f0e8de"/></g><path d="M984.31,235.98c0,6.01-2.59,13.55-6.67,19.55l-.22-.58-.22-.59-1.45-3.91-.24-.63-.23-.62a35.849,35.849,0,0,0,2.2-5.1,26.773,26.773,0,0,0,1.58-8.12,12.508,12.508,0,0,0-12.38-12.48h-.13a12.373,12.373,0,0,0-6.04,1.58,13.059,13.059,0,0,0-4.48,4.2,4.788,4.788,0,0,1-8.02,0,13.06,13.06,0,0,0-4.48-4.2,12.4,12.4,0,0,0-6.04-1.58h-.14a12.493,12.493,0,0,0-12.37,12.48c0,4.35,1.97,11.44,6.38,17.46,6.43,8.8,16.35,17.04,20.64,20.41a130.44,130.44,0,0,0,16.51-15.3l.19.52.21.54,1.3,3.44.19.52.2.53a144.683,144.683,0,0,1-18.3,16.18l-.3.21-.29-.21c-.15-.11-15.46-11.21-24.61-23.71-4.5-6.15-7.41-14.23-7.41-20.59a17.85,17.85,0,0,1,17.62-17.78h.17A17.833,17.833,0,0,1,952,225.76a17.851,17.851,0,0,1,14.53-7.56h.16A17.837,17.837,0,0,1,984.31,235.98Z" fill="#0962cc"/></g></svg>