<svg xmlns="http://www.w3.org/2000/svg" xmlns:xlink="http://www.w3.org/1999/xlink" width="72.687" height="71.73" viewBox="0 0 72.687 71.73"><defs><linearGradient id="a" y1="1" x2="1" y2="1" gradientUnits="objectBoundingBox"><stop offset="0" stop-color="#f15a29"/><stop offset="1" stop-color="#f7941d"/></linearGradient></defs><g transform="translate(-969.47 -1624.403)"><rect width="72.687" height="71.731" transform="translate(969.47 1624.403)" fill="none"/><g transform="translate(973.47 1628.403)"><path d="M25.2,46.082H6.64V6.64H48.4V25.2h4.64V6.64A4.64,4.64,0,0,0,48.4,2H6.64A4.64,4.64,0,0,0,2,6.64V46.082a4.64,4.64,0,0,0,4.64,4.64H25.2Z" transform="translate(-2 -2)" fill="#0962cc"/><path d="M48.485,45.191,41.27,37.975a13.921,13.921,0,1,0-3.295,3.295l7.215,7.215ZM29.924,39.2a9.28,9.28,0,1,1,9.28-9.28A9.28,9.28,0,0,1,29.924,39.2Z" transform="translate(16.478 16.478)" fill="url(#a)"/><rect width="18.155" height="5.525" transform="translate(8.683 7.893)" fill="url(#a)"/><rect width="9.472" height="4.736" transform="translate(8.683 18.155)" fill="url(#a)"/></g></g></svg>