<svg xmlns="http://www.w3.org/2000/svg" xmlns:xlink="http://www.w3.org/1999/xlink" width="503.628" height="506.441" viewBox="0 0 503.628 506.441">
  <defs>
    <linearGradient id="linear-gradient" x2="1" gradientUnits="objectBoundingBox">
      <stop offset="0" stop-color="#f15a29"/>
      <stop offset="1" stop-color="#f7941d"/>
    </linearGradient>
  </defs>
  <g id="Group_3888" data-name="Group 3888" transform="translate(-610.528 -1299.611)">
    <path id="Path_32579" data-name="Path 32579" d="M135.511,0a22.659,22.659,0,0,1,19.6,11.3l37.567,64.821a22.659,22.659,0,0,1,0,22.724l-37.567,64.821a22.659,22.659,0,0,1-19.6,11.3H60.226a22.659,22.659,0,0,1-19.6-11.3L3.054,98.842a22.659,22.659,0,0,1,0-22.724L40.622,11.3A22.659,22.659,0,0,1,60.227,0Z" transform="translate(910.008 1299.611) rotate(30)" fill="#0962cc" opacity="0.499"/>
    <path id="Path_32581" data-name="Path 32581" d="M97.88,0a16.367,16.367,0,0,1,14.16,8.16l27.135,46.82a16.367,16.367,0,0,1,0,16.414l-27.135,46.821a16.367,16.367,0,0,1-14.16,8.16H43.5a16.367,16.367,0,0,1-14.16-8.16L2.206,71.394a16.367,16.367,0,0,1,0-16.414L29.341,8.16A16.367,16.367,0,0,1,43.5,0Z" transform="translate(991.716 1488.611) rotate(30)" fill="#0962cc" opacity="0.302"/>
    <path id="Path_32580" data-name="Path 32580" d="M207.265,0A34.657,34.657,0,0,1,237.25,17.279l57.459,99.144a34.657,34.657,0,0,1,0,34.756l-57.46,99.144A34.657,34.657,0,0,1,207.265,267.6H92.116a34.657,34.657,0,0,1-29.985-17.279L4.672,151.179a34.657,34.657,0,0,1,0-34.756l57.46-99.144A34.657,34.657,0,0,1,92.117,0Z" transform="translate(744.329 1424.611) rotate(30)" fill="url(#linear-gradient)"/>
    <g id="Group_3889" data-name="Group 3889" transform="translate(494.432 2377.751)">
      <path id="Path_502" data-name="Path 502" d="M516.72-762.789H502.876a6.922,6.922,0,0,0-6.922,6.922v4.614h4.615v-4.614a2.308,2.308,0,0,1,2.307-2.307H516.72a2.308,2.308,0,0,1,2.307,2.307v4.616h4.615v-4.616a6.922,6.922,0,0,0-6.922-6.922Z" transform="translate(1.143 -18.261)" fill="#f0f0f0"/>
      <path id="Path_503" data-name="Path 503" d="M512.347-776.565a9.23,9.23,0,0,0,9.23-9.229,9.23,9.23,0,0,0-9.23-9.229,9.229,9.229,0,0,0-9.229,9.229A9.229,9.229,0,0,0,512.347-776.565Zm0-13.844a4.615,4.615,0,0,1,4.616,4.614,4.614,4.614,0,0,1-4.614,4.616,4.615,4.615,0,0,1-4.616-4.614h0A4.615,4.615,0,0,1,512.347-790.409Z" transform="translate(-1.407 -6.791)" fill="#f0f0f0"/>
      <path id="Path_504" data-name="Path 504" d="M559.6-821.456v20.227a6.682,6.682,0,0,1-6.684,6.677h-8.228l-5.756,10.2-3.977-2.243,7.064-12.517h10.9a2.121,2.121,0,0,0,2.122-2.114v-20.227a2.122,2.122,0,0,0-2.122-2.122h-33.71a2.121,2.121,0,0,0-2.114,2.122v10.995H512.53v-10.995a6.677,6.677,0,0,1,6.677-6.684h33.71A6.684,6.684,0,0,1,559.6-821.456Z" transform="translate(-3.697 0)" fill="#f0f0f0"/>
      <rect id="Rectangle_1292" data-name="Rectangle 1292" width="26.607" height="4.563" transform="translate(519.043 -818.486)" fill="#f0f0f0"/>
      <rect id="Rectangle_1293" data-name="Rectangle 1293" width="16.514" height="4.563" transform="translate(519.043 -808.512)" fill="#f0f0f0"/>
    </g>
    <g id="Group_3890" data-name="Group 3890" transform="translate(902.591 1376.674)">
      <path id="Path_493" data-name="Path 493" d="M31.75,58.525H7.95V7.95H61.5v23.8h5.95V7.95A5.95,5.95,0,0,0,61.5,2H7.95A5.95,5.95,0,0,0,2,7.95V58.525a5.95,5.95,0,0,0,5.95,5.95h23.8Z" transform="translate(3.938 3.938)" fill="#f0f0f0"/>
      <path id="Path_494" data-name="Path 494" d="M57.656,53.431,48.4,44.179A17.85,17.85,0,1,0,44.179,48.4l9.252,9.252Zm-23.8-7.675a11.9,11.9,0,1,1,11.9-11.9A11.9,11.9,0,0,1,33.856,45.756Z" transform="translate(31.582 31.582)" fill="#f0f0f0"/>
      <rect id="Rectangle_1290" data-name="Rectangle 1290" width="22.947" height="7.171" transform="translate(17.362 15.928)" fill="#f0f0f0"/>
      <rect id="Rectangle_1291" data-name="Rectangle 1291" width="12.19" height="5.737" transform="translate(17.362 29.553)" fill="#f0f0f0"/>
    </g>
    <g id="Group_3891" data-name="Group 3891" transform="translate(731.575 1540.658)">
      <path id="Path_487" data-name="Path 487" d="M13.886,24.943V20H4v4.943a34.6,34.6,0,0,0,34.6,34.6H53.428V49.657H38.6A24.714,24.714,0,0,1,13.886,24.943Z" transform="translate(11.839 74.924)" fill="#f0f0f0"/>
      <path id="Path_488" data-name="Path 488" d="M55.542,38.6v4.943h9.886V38.6A34.6,34.6,0,0,0,30.828,4H16v9.886H30.828A24.714,24.714,0,0,1,55.542,38.6Z" transform="translate(59.152 11.839)" fill="#f0f0f0"/>
      <path id="Path_489" data-name="Path 489" d="M46.485,11H16.828A14.828,14.828,0,0,0,2,25.828v9.886h9.886V25.828a4.943,4.943,0,0,1,4.943-4.943H46.485a4.943,4.943,0,0,1,4.943,4.943v9.886h9.886V25.828A14.828,14.828,0,0,0,46.485,11Z" transform="translate(3.953 39.438)" fill="#f0f0f0"/>
      <path id="Path_490" data-name="Path 490" d="M23.771,41.542A19.771,19.771,0,1,0,4,21.771,19.771,19.771,0,0,0,23.771,41.542Zm0-29.657a9.886,9.886,0,1,1-9.886,9.886A9.886,9.886,0,0,1,23.771,11.886Z" transform="translate(11.839 3.953)" fill="#f0f0f0"/>
      <path id="Path_491" data-name="Path 491" d="M62.485,25H32.828A14.828,14.828,0,0,0,18,39.828v9.886h9.886V39.828a4.943,4.943,0,0,1,4.943-4.943H62.485a4.943,4.943,0,0,1,4.943,4.943v9.886h9.886V39.828A14.828,14.828,0,0,0,62.485,25Z" transform="translate(67.038 94.638)" fill="#f0f0f0"/>
      <path id="Path_492" data-name="Path 492" d="M20,35.771A19.771,19.771,0,1,0,39.771,16,19.771,19.771,0,0,0,20,35.771Zm29.657,0a9.886,9.886,0,1,1-9.886-9.886A9.886,9.886,0,0,1,49.657,35.771Z" transform="translate(74.924 59.152)" fill="#f0f0f0"/>
    </g>
  </g>
</svg>
