<?xml version="1.0" encoding="utf-8"?>
<!-- Generator: Adobe Illustrator 25.2.3, SVG Export Plug-In . SVG Version: 6.00 Build 0)  -->
<svg version="1.1" id="Layer_1" xmlns="http://www.w3.org/2000/svg" xmlns:xlink="http://www.w3.org/1999/xlink" x="0px" y="0px"
	 viewBox="0 0 77.9 77.9" style="enable-background:new 0 0 77.9 77.9;" xml:space="preserve">
<style type="text/css">
	.st0{fill:none;}
	.st1{fill:#0962CC;}
	.st2{fill:url(#Path_463_1_);}
</style>
<g id="bee" transform="translate(0 -0.179)">
	<path class="st0" d="M0,0.2v77.9h77.9V0.2H0z M39.5,73.7H39c-7.3,0-14.6-2.4-20.5-6.8C3.4,55.8,0,34.7,10.5,19.5l-4.5,0.4l-0.4-5
		l12.9-1.1l1.1,12.9l-5,0.4l-0.4-4.4c-3.2,4.8-5,10.6-4.9,16.4c0,4,0.8,7.8,2.2,11.3c1.5,3.5,3.6,6.8,6.4,9.6
		c5.6,5.6,13,8.7,20.9,8.7h0.5V73.7z M71.9,58.4l0.4,5l-12.9,1.1l-1.1-12.9l5-0.4l0.4,4.4c3.2-4.9,5-10.5,5-16.4
		c0-7.9-3.1-15.3-8.7-20.9c-5.6-5.6-13-8.7-20.9-8.7h-0.5v-5H39c7.3,0,14.6,2.4,20.6,6.8c15,11.1,18.5,32.2,7.9,47.5L71.9,58.4z"/>
	<g id="exchange" transform="translate(4.896 5.074)">
		<g>
			<path class="st1" d="M67,53.4l0.4,5l-12.9,1.1l-1.1-12.9l5-0.4l0.4,4.4c3.2-4.9,5-10.5,5-16.4c0-7.9-3.1-15.3-8.7-20.9
				c-5.6-5.6-13-8.7-20.9-8.7h-0.5v-5h0.5c7.3,0,14.6,2.4,20.6,6.8c15,11.1,18.5,32.2,7.9,47.5L67,53.4z"/>
		</g>
		<g>
			<path class="st1" d="M34.6,63.7v5h-0.5c-7.3,0-14.6-2.4-20.5-6.8c-15-11.1-18.5-32.2-7.9-47.5l-4.5,0.4l-0.4-5l12.9-1.1l1.1,12.9
				l-5,0.4l-0.4-4.4c-3.2,4.8-5,10.6-4.9,16.4c0,4,0.8,7.8,2.2,11.3c1.5,3.5,3.6,6.8,6.4,9.6c5.6,5.6,13,8.7,20.9,8.7H34.6z"/>
		</g>
		
			<linearGradient id="Path_463_1_" gradientUnits="userSpaceOnUse" x1="-548.8549" y1="277.8575" x2="-547.9707" y2="277.8575" gradientTransform="matrix(34.9103 0 0 -30.918 19179.3164 8624.8711)">
			<stop  offset="0" style="stop-color:#F15A29"/>
			<stop  offset="1" style="stop-color:#F7941D"/>
		</linearGradient>
		<path id="Path_463" class="st2" d="M29,48.2c-1.9,0-3.7-1-4.6-2.7l-5-8.7c-0.9-1.7-0.9-3.7,0-5.3l5.1-8.8c1-1.6,2.7-2.7,4.6-2.7
			l10.1,0c1.9,0,3.7,1,4.6,2.7l5,8.7l0,0c0.9,1.6,0.9,3.7,0,5.3l-5.1,8.7c-1,1.6-2.7,2.7-4.6,2.7L29,48.2z M24.3,34.1l4.8,8.4
			l9.7-0.1l4.9-8.4L39,25.7l-9.7,0L24.3,34.1z"/>
	</g>
</g>
</svg>
