<svg xmlns="http://www.w3.org/2000/svg" xmlns:xlink="http://www.w3.org/1999/xlink" width="503.628" height="506.441" viewBox="0 0 503.628 506.441">
  <defs>
    <linearGradient id="linear-gradient" x2="1" gradientUnits="objectBoundingBox">
      <stop offset="0" stop-color="#f15a29"/>
      <stop offset="1" stop-color="#f7941d"/>
    </linearGradient>
  </defs>
  <g id="Group_3883" data-name="Group 3883" transform="translate(-610.156 -1299.611)">
    <path id="Path_32579" data-name="Path 32579" d="M135.511,0a22.659,22.659,0,0,1,19.6,11.3l37.567,64.821a22.659,22.659,0,0,1,0,22.724l-37.567,64.821a22.659,22.659,0,0,1-19.6,11.3H60.226a22.659,22.659,0,0,1-19.6-11.3L3.054,98.842a22.659,22.659,0,0,1,0-22.724L40.622,11.3A22.659,22.659,0,0,1,60.227,0Z" transform="translate(909.636 1299.611) rotate(30)" fill="#0962cc" opacity="0.499"/>
    <path id="Path_32581" data-name="Path 32581" d="M97.88,0a16.367,16.367,0,0,1,14.16,8.16l27.135,46.82a16.367,16.367,0,0,1,0,16.414l-27.135,46.821a16.367,16.367,0,0,1-14.16,8.16H43.5a16.367,16.367,0,0,1-14.16-8.16L2.206,71.394a16.367,16.367,0,0,1,0-16.414L29.341,8.16A16.367,16.367,0,0,1,43.5,0Z" transform="translate(991.344 1488.611) rotate(30)" fill="#0962cc" opacity="0.302"/>
    <path id="Path_32580" data-name="Path 32580" d="M207.265,0A34.657,34.657,0,0,1,237.25,17.279l57.459,99.144a34.657,34.657,0,0,1,0,34.756l-57.46,99.144A34.657,34.657,0,0,1,207.265,267.6H92.116a34.657,34.657,0,0,1-29.985-17.279L4.672,151.179a34.657,34.657,0,0,1,0-34.756l57.46-99.144A34.657,34.657,0,0,1,92.117,0Z" transform="translate(743.957 1424.611) rotate(30)" fill="url(#linear-gradient)"/>
    <g id="Group_3885" data-name="Group 3885" transform="translate(240.06 2374.751)">
      <path id="Path_502" data-name="Path 502" d="M544.975-762.789H512.293a16.34,16.34,0,0,0-16.339,16.34v10.893h10.894v-10.893a5.448,5.448,0,0,1,5.447-5.447h32.68a5.448,5.448,0,0,1,5.447,5.447v10.9h10.894v-10.9a16.34,16.34,0,0,0-16.34-16.34Z" transform="translate(1.143 45.811)" fill="#f0f0f0"/>
      <path id="Path_503" data-name="Path 503" d="M524.9-751.45a21.787,21.787,0,0,0,21.788-21.787A21.787,21.787,0,0,0,524.9-795.024a21.787,21.787,0,0,0-21.786,21.786A21.787,21.787,0,0,0,524.9-751.45Zm0-32.679a10.894,10.894,0,0,1,10.9,10.892,10.892,10.892,0,0,1-10.892,10.9,10.9,10.9,0,0,1-10.9-10.893h0A10.9,10.9,0,0,1,524.9-784.13Z" transform="translate(4.872 29.028)" fill="#f0f0f0"/>
      <path id="Path_504" data-name="Path 504" d="M623.645-812.361v47.749a15.774,15.774,0,0,1-15.779,15.761H588.444l-13.589,24.072-9.388-5.3,16.676-29.547h25.724a5.007,5.007,0,0,0,5.008-4.991v-47.749a5.01,5.01,0,0,0-5.008-5.008H528.291a5.006,5.006,0,0,0-4.99,5.008v25.955H512.53v-25.955a15.762,15.762,0,0,1,15.761-15.779h79.576A15.778,15.778,0,0,1,623.645-812.361Z" transform="translate(12.272 0)" fill="#f0f0f0"/>
      <rect id="Rectangle_1292" data-name="Rectangle 1292" width="62.808" height="10.77" transform="translate(548.902 -805.35)" fill="#f0f0f0"/>
      <rect id="Rectangle_1293" data-name="Rectangle 1293" width="38.984" height="10.77" transform="translate(548.902 -781.806)" fill="#f0f0f0"/>
    </g>
    <g id="Group_3886" data-name="Group 3886" transform="translate(986.219 1543.674)">
      <path id="Path_493" data-name="Path 493" d="M22.939,41.783H6.188V6.188h37.69V22.939h4.188V6.188A4.188,4.188,0,0,0,43.877,2H6.188A4.188,4.188,0,0,0,2,6.188v35.6a4.188,4.188,0,0,0,4.188,4.188H22.939Z" transform="translate(3.938 3.938)" fill="#f0f0f0"/>
      <path id="Path_494" data-name="Path 494" d="M45.317,42.344l-6.512-6.512a12.563,12.563,0,1,0-2.973,2.973l6.512,6.512Zm-16.751-5.4a8.375,8.375,0,1,1,8.375-8.375A8.375,8.375,0,0,1,28.566,36.942Z" transform="translate(19.248 19.248)" fill="#f0f0f0"/>
      <rect id="Rectangle_1290" data-name="Rectangle 1290" width="16.15" height="5.047" transform="translate(13.979 12.969)" fill="#f0f0f0"/>
      <rect id="Rectangle_1291" data-name="Rectangle 1291" width="8.58" height="4.038" transform="translate(13.979 22.558)" fill="#f0f0f0"/>
    </g>
    <g id="Group_3887" data-name="Group 3887" transform="translate(903.203 1376.658)">
      <path id="Path_487" data-name="Path 487" d="M9.95,22.975V20H4v2.975A20.825,20.825,0,0,0,24.825,43.8H33.75V37.85H24.825A14.875,14.875,0,0,1,9.95,22.975Z" transform="translate(7.903 39.503)" fill="#f0f0f0"/>
      <path id="Path_488" data-name="Path 488" d="M39.8,24.825V27.8h5.95V24.825A20.825,20.825,0,0,0,24.925,4H16V9.95h8.925A14.875,14.875,0,0,1,39.8,24.825Z" transform="translate(31.603 7.903)" fill="#f0f0f0"/>
      <path id="Path_489" data-name="Path 489" d="M28.775,11H10.925A8.925,8.925,0,0,0,2,19.925v5.95H7.95v-5.95a2.975,2.975,0,0,1,2.975-2.975h17.85a2.975,2.975,0,0,1,2.975,2.975v5.95H37.7v-5.95A8.925,8.925,0,0,0,28.775,11Z" transform="translate(3.953 21.728)" fill="#f0f0f0"/>
      <path id="Path_490" data-name="Path 490" d="M15.9,25.8A11.9,11.9,0,1,0,4,13.9,11.9,11.9,0,0,0,15.9,25.8Zm0-17.85A5.95,5.95,0,1,1,9.95,13.9,5.95,5.95,0,0,1,15.9,7.95Z" transform="translate(7.903 3.953)" fill="#f0f0f0"/>
      <path id="Path_491" data-name="Path 491" d="M44.775,25H26.925A8.925,8.925,0,0,0,18,33.925v5.95h5.95v-5.95a2.975,2.975,0,0,1,2.975-2.975h17.85a2.975,2.975,0,0,1,2.975,2.975v5.95H53.7v-5.95A8.925,8.925,0,0,0,44.775,25Z" transform="translate(35.553 49.378)" fill="#f0f0f0"/>
      <path id="Path_492" data-name="Path 492" d="M20,27.9A11.9,11.9,0,1,0,31.9,16,11.9,11.9,0,0,0,20,27.9Zm17.85,0a5.95,5.95,0,1,1-5.95-5.95A5.95,5.95,0,0,1,37.85,27.9Z" transform="translate(39.503 31.603)" fill="#f0f0f0"/>
    </g>
  </g>
</svg>
