<svg xmlns="http://www.w3.org/2000/svg" xmlns:xlink="http://www.w3.org/1999/xlink" width="69" height="69" viewBox="0 0 69 69"><defs><linearGradient id="a" y1="1" x2="1" y2="1" gradientUnits="objectBoundingBox"><stop offset="0" stop-color="#f15a29"/><stop offset="1" stop-color="#f7941d"/></linearGradient></defs><g transform="translate(-0.08 0.029)"><rect width="69" height="69" transform="translate(0.08 -0.029)" fill="none"/><g transform="translate(2.173 4.313)"><path d="M62.85,30.152H48.434V18.9a1.9,1.9,0,0,0-1.9-1.9H1.9A1.9,1.9,0,0,0,0,18.9V67.963a9.5,9.5,0,0,0,9.484,9.484H55.262a9.5,9.5,0,0,0,9.484-9.484V32.049A1.9,1.9,0,0,0,62.85,30.152ZM9.484,73.653a5.7,5.7,0,0,1-5.691-5.691V20.794H44.64c0,50.136-.024,47.349.044,48.064a9.454,9.454,0,0,0,1.858,4.8Zm51.469-5.691a5.7,5.7,0,0,1-5.691,5.691H54.124a5.7,5.7,0,0,1-5.691-5.691V33.945H60.953Z" transform="translate(0 -17)" fill="#0962cc"/><path d="M95.224,89H66.9a1.9,1.9,0,1,0,0,3.794H95.224a1.9,1.9,0,1,0,0-3.794Z" transform="translate(-56.78 -79.895)" fill="url(#a)"/><path d="M95.224,153H66.9a1.9,1.9,0,0,0,0,3.794H95.224a1.9,1.9,0,1,0,0-3.794Z" transform="translate(-56.78 -135.802)" fill="url(#a)"/><path d="M95.224,393H66.9a1.9,1.9,0,0,0,0,3.794H95.224a1.9,1.9,0,0,0,0-3.794Z" transform="translate(-56.78 -345.452)" fill="url(#a)"/><path d="M193.06,217H178.9a1.9,1.9,0,0,0-1.9,1.9V233.06a1.9,1.9,0,0,0,1.9,1.9H193.06a1.9,1.9,0,0,0,1.9-1.9V218.9A1.9,1.9,0,0,0,193.06,217Zm-1.9,14.163h-10.37v-10.37h10.37Z" transform="translate(-154.617 -191.708)" fill="#0962cc"/><path d="M66.9,244.794h6.07a1.9,1.9,0,0,0,0-3.794H66.9a1.9,1.9,0,0,0,0,3.794Z" transform="translate(-56.78 -212.673)" fill="#0962cc"/><path d="M66.9,308.794h6.07a1.9,1.9,0,0,0,0-3.794H66.9a1.9,1.9,0,1,0,0,3.794Z" transform="translate(-56.78 -268.58)" fill="#0962cc"/></g></g></svg>