<svg xmlns="http://www.w3.org/2000/svg" xmlns:xlink="http://www.w3.org/1999/xlink" width="71.39" height="72" viewBox="0 0 71.39 72"><defs><linearGradient id="a" y1="0.5" x2="1" y2="0.5" gradientUnits="objectBoundingBox"><stop offset="0" stop-color="#f15a29"/><stop offset="1" stop-color="#f7941d"/></linearGradient></defs><g transform="translate(-567.57 293.67)"><g transform="translate(567.57 -293.67)"><g transform="translate(4.375 4.546)"><path d="M628.508-241.409a8.607,8.607,0,0,0-4.479,1.275l-6.889-6.907-.031-.031-.018.024-1.806,3.106a5.189,5.189,0,0,1-.628.86l6.169,6.151a8.607,8.607,0,0,0-1.275,4.479,8.957,8.957,0,0,0,8.957,8.963,8.958,8.958,0,0,0,8.963-8.963A8.957,8.957,0,0,0,628.508-241.409Zm0,13.442a4.483,4.483,0,0,1-4.479-4.485,4.482,4.482,0,0,1,4.479-4.479,4.483,4.483,0,0,1,4.485,4.479A4.484,4.484,0,0,1,628.508-227.967Zm-31.07-15a4.932,4.932,0,0,1-.665-.9l-1.782-3.087-6.81,6.828a8.607,8.607,0,0,0-4.479-1.275,8.957,8.957,0,0,0-8.963,8.957,8.958,8.958,0,0,0,8.963,8.963,8.957,8.957,0,0,0,8.957-8.963,8.607,8.607,0,0,0-1.275-4.479Zm-13.735,15a4.484,4.484,0,0,1-4.485-4.485,4.483,4.483,0,0,1,4.485-4.479,4.482,4.482,0,0,1,4.479,4.479A4.483,4.483,0,0,1,583.7-227.967Zm7.682-44.811a8.612,8.612,0,0,0,1.275-4.485,8.955,8.955,0,0,0-8.957-8.957,8.957,8.957,0,0,0-8.963,8.957A8.958,8.958,0,0,0,583.7-268.3a8.607,8.607,0,0,0,4.479-1.275l6.9,6.919,1.757-3.033a4.967,4.967,0,0,1,.708-.946Zm-7.682,0a4.483,4.483,0,0,1-4.485-4.479,4.484,4.484,0,0,1,4.485-4.485,4.483,4.483,0,0,1,4.479,4.485A4.482,4.482,0,0,1,583.7-272.778Z" transform="translate(-574.74 286.22)" fill="#0962cc"/><path d="M597.548-266.634a4.967,4.967,0,0,0-.708.946l-1.757,3.033-6.9-6.919A8.607,8.607,0,0,1,583.7-268.3a8.958,8.958,0,0,1-8.963-8.963,8.957,8.957,0,0,1,8.963-8.957,8.955,8.955,0,0,1,8.957,8.957,8.612,8.612,0,0,1-1.275,4.485Z" transform="translate(-574.74 286.22)" fill="none"/><path d="M644.162-222.07l.006.006-.018.024" transform="translate(-601.798 261.212)" fill="none"/><line x1="0.006" y1="0.006" transform="translate(39.142 42.364)" fill="none"/><path d="M608.1-222.1c-.012-.012-.018-.031-.031-.043" transform="translate(-587.733 261.24)" fill="none"/><path d="M594.992-221.88l-6.81,6.828a8.607,8.607,0,0,0-4.479-1.275,8.957,8.957,0,0,0-8.963,8.957,8.958,8.958,0,0,0,8.963,8.963,8.957,8.957,0,0,0,8.957-8.963,8.607,8.607,0,0,0-1.275-4.479l6.053-6.041" transform="translate(-574.74 261.138)" fill="none"/><path d="M642.643-222.01l6.889,6.907a8.606,8.606,0,0,1,4.479-1.275,8.957,8.957,0,0,1,8.963,8.957,8.958,8.958,0,0,1-8.963,8.963,8.957,8.957,0,0,1-8.957-8.963,8.607,8.607,0,0,1,1.275-4.479l-6.169-6.15" transform="translate(-600.243 261.189)" fill="none"/></g><path d="M625.768-284.664a4.441,4.441,0,0,0-3.148,1.3,4.45,4.45,0,0,0-1.306,3.155,4.456,4.456,0,0,0,4.454,4.454,4.456,4.456,0,0,0,4.454-4.454A4.452,4.452,0,0,0,625.768-284.664Zm0,0a4.441,4.441,0,0,0-3.148,1.3,4.45,4.45,0,0,0-1.306,3.155,4.456,4.456,0,0,0,4.454,4.454,4.456,4.456,0,0,0,4.454-4.454A4.452,4.452,0,0,0,625.768-284.664Zm0,0a4.441,4.441,0,0,0-3.148,1.3,4.45,4.45,0,0,0-1.306,3.155,4.456,4.456,0,0,0,4.454,4.454,4.456,4.456,0,0,0,4.454-4.454A4.452,4.452,0,0,0,625.768-284.664Zm0,0a4.441,4.441,0,0,0-3.148,1.3,4.45,4.45,0,0,0-1.306,3.155,4.456,4.456,0,0,0,4.454,4.454,4.456,4.456,0,0,0,4.454-4.454A4.452,4.452,0,0,0,625.768-284.664Zm-58.2-9.006v72h71.39v-72Zm58.2,22.363a8.573,8.573,0,0,1-4.454-1.269l-6.986,7.011,3.033,5.254a5.15,5.15,0,0,1,.677,2.55,5.111,5.111,0,0,1-.677,2.544l-1.928,3.313-1.086,1.873a.331.331,0,0,1-.037.049q-.11.165-.238.329c.079-.1.153-.2.226-.3l-1.806,3.106a5.186,5.186,0,0,1-.628.86,5.121,5.121,0,0,1-3.789,1.678l-3.679.031-2.026.018-3.954.031a5.13,5.13,0,0,1-3.771-1.647,4.934,4.934,0,0,1-.665-.9l-1.782-3.087-3.02-5.229a5.123,5.123,0,0,1,0-5.107l1.94-3.344.94-1.617c.085-.128.171-.25.256-.372l-.024-.024,1.757-3.033a4.965,4.965,0,0,1,.708-.946,5.077,5.077,0,0,1,3.71-1.593l3.96-.018,1.538-.012,4.161-.018a5.131,5.131,0,0,1,3.759,1.641l6.242-6.224a8.624,8.624,0,0,1-1.263-4.454,8.911,8.911,0,0,1,8.909-8.908,8.911,8.911,0,0,1,8.908,8.908A8.911,8.911,0,0,1,625.768-271.307Zm0-13.357a4.441,4.441,0,0,0-3.148,1.3,4.45,4.45,0,0,0-1.306,3.155,4.456,4.456,0,0,0,4.454,4.454,4.456,4.456,0,0,0,4.454-4.454A4.452,4.452,0,0,0,625.768-284.664Zm0,0a4.441,4.441,0,0,0-3.148,1.3,4.45,4.45,0,0,0-1.306,3.155,4.456,4.456,0,0,0,4.454,4.454,4.456,4.456,0,0,0,4.454-4.454A4.452,4.452,0,0,0,625.768-284.664Zm0,0a4.441,4.441,0,0,0-3.148,1.3,4.45,4.45,0,0,0-1.306,3.155,4.456,4.456,0,0,0,4.454,4.454,4.456,4.456,0,0,0,4.454-4.454A4.452,4.452,0,0,0,625.768-284.664Z" transform="translate(-567.57 293.67)" fill="none"/><path d="M629.389-235.662a13.583,13.583,0,0,0,1.086-1.873Zm-11.978,5.772c.3.018.6.031.9.031.378,0,.757-.018,1.129-.049Zm.9-26.921c-.281,0-.561.006-.842.03l1.538-.012C618.778-256.8,618.54-256.81,618.309-256.81Zm-10.959,5.638c-.055.073-.11.146-.159.22a13.185,13.185,0,0,0-1.031,1.776l.94-1.617c.085-.128.171-.25.256-.372Z" transform="translate(-582.614 279.301)" fill="url(#a)"/><path d="M607.956-247.564c-.085.122-.171.244-.256.372.079-.128.165-.256.25-.378Z" transform="translate(-583.214 275.699)" fill="url(#a)"/><line x2="0.006" y2="0.006" transform="translate(43.517 46.91)" fill="none"/><path d="M644.207-222.13c-.012.012-.018.031-.03.043l-.006-.006" transform="translate(-597.431 265.782)" fill="none"/></g><path d="M607.932-247.8l-.14.238-.091.159c.085-.128.171-.25.256-.372Zm22.021,15.578q-.11.165-.238.33c.079-.1.153-.2.226-.3l.018-.024.031-.055A.341.341,0,0,1,629.953-232.225Zm-3.173,3.2c-.012.012-.031.018-.043.031l.012.012a13.535,13.535,0,0,0,1.69-1.434.387.387,0,0,0,.049-.055A13.375,13.375,0,0,1,626.78-229.028Zm-12.313-18.934-.091-.159m9.323,16.176-.079-.134" transform="translate(-15.644 -17.757)" fill="none"/><path d="M639.136-286.22a8.911,8.911,0,0,0-8.909,8.908,8.624,8.624,0,0,0,1.263,4.454l-6.242,6.224a5.131,5.131,0,0,0-3.759-1.641l-4.161.018-1.538.012-3.96.018a5.077,5.077,0,0,0-3.71,1.593,4.965,4.965,0,0,0-.708.946l-1.757,3.033.024.024c-.085.122-.171.244-.256.372l-.94,1.617-1.94,3.344a5.123,5.123,0,0,0,0,5.107l3.02,5.229,1.782,3.087a4.926,4.926,0,0,0,.665.9,5.13,5.13,0,0,0,3.771,1.647l3.954-.031,2.026-.018,3.679-.031a5.121,5.121,0,0,0,3.789-1.678,5.189,5.189,0,0,0,.628-.86l1.806-3.106c-.073.1-.147.2-.226.3q.128-.165.238-.33a.329.329,0,0,0,.037-.049L628.8-249l1.928-3.313a5.111,5.111,0,0,0,.677-2.544,5.15,5.15,0,0,0-.677-2.55l-3.033-5.254,6.987-7.011a8.573,8.573,0,0,0,4.454,1.269,8.911,8.911,0,0,0,8.908-8.909A8.911,8.911,0,0,0,639.136-286.22Zm-13.564,32.04-4,6.852-.232.4-.079.134-.61.006-7.951.043-.763.006-.4-.683-3.844-6.663-.378-.659.372-.635,4.021-6.907.305-.525h.61l7.938-.037.769-.006.4.69,3.826,6.62.4.7Zm13.564-18.671a4.456,4.456,0,0,1-4.454-4.454,4.45,4.45,0,0,1,1.306-3.155,4.441,4.441,0,0,1,3.148-1.3,4.452,4.452,0,0,1,4.454,4.454A4.456,4.456,0,0,1,639.136-272.851Z" transform="translate(-13.368 -2.904)" fill="url(#a)"/></g></svg>