<svg xmlns="http://www.w3.org/2000/svg" xmlns:xlink="http://www.w3.org/1999/xlink" width="70.43" height="70.43" viewBox="0 0 70.43 70.43"><defs><linearGradient id="a" y1="1" x2="1" y2="1" gradientUnits="objectBoundingBox"><stop offset="0" stop-color="#f15a29"/><stop offset="1" stop-color="#f7941d"/></linearGradient></defs><g transform="translate(-1282 -1626)"><rect width="70.43" height="70.43" transform="translate(1282 1626)" fill="none"/><g transform="translate(1281.19 1622.952)"><path d="M8.3,22.148V20H4v2.148A15.036,15.036,0,0,0,19.036,37.184H25.48v-4.3H19.036A10.74,10.74,0,0,1,8.3,22.148Z" transform="translate(6.249 24.618)" fill="url(#a)"/><path d="M33.184,19.036v2.148h4.3V19.036A15.036,15.036,0,0,0,22.444,4H16V8.3h6.444A10.74,10.74,0,0,1,33.184,19.036Z" transform="translate(20.026 6.249)" fill="url(#a)"/><path d="M21.332,11H8.444A6.444,6.444,0,0,0,2,17.444v4.3H6.3v-4.3A2.148,2.148,0,0,1,8.444,15.3H21.332a2.148,2.148,0,0,1,2.148,2.148v4.3h4.3v-4.3A6.444,6.444,0,0,0,21.332,11Z" transform="translate(3.953 14.286)" fill="#0962cc"/><path d="M12.592,19.184A8.592,8.592,0,1,0,4,10.592a8.592,8.592,0,0,0,8.592,8.592Zm0-12.888a4.3,4.3,0,1,1-4.3,4.3A4.3,4.3,0,0,1,12.592,6.3Z" transform="translate(6.249 3.953)" fill="#0962cc"/><path d="M37.332,25H24.444A6.444,6.444,0,0,0,18,31.444v4.3h4.3v-4.3A2.148,2.148,0,0,1,24.444,29.3H37.332a2.148,2.148,0,0,1,2.148,2.148v4.3h4.3v-4.3A6.444,6.444,0,0,0,37.332,25Z" transform="translate(22.322 30.358)" fill="#0962cc"/><path d="M20,24.592A8.592,8.592,0,1,0,28.592,16,8.592,8.592,0,0,0,20,24.592Zm12.888,0a4.3,4.3,0,1,1-4.3-4.3A4.3,4.3,0,0,1,32.888,24.592Z" transform="translate(24.618 20.026)" fill="#0962cc"/></g></g></svg>