<svg xmlns="http://www.w3.org/2000/svg" xmlns:xlink="http://www.w3.org/1999/xlink" width="69" height="69" viewBox="0 0 69 69"><defs><linearGradient id="a" y1="0.5" x2="1" y2="0.5" gradientUnits="objectBoundingBox"><stop offset="0" stop-color="#f15a29"/><stop offset="1" stop-color="#f7941d"/></linearGradient></defs><g transform="translate(0 0.164)"><rect width="59" height="5" transform="translate(5 46.836)" fill="url(#a)"/><rect width="59" height="5" transform="translate(5 55.836)" fill="#0962cc"/><rect width="69" height="69" transform="translate(0 -0.164)" fill="none"/><path d="M26.3,10a4.3,4.3,0,1,0,4.3,4.3A4.3,4.3,0,0,0,26.3,10Z" transform="translate(25.325 11.511)" fill="#0962cc"/><path d="M20.6,25.209a8.6,8.6,0,1,1,8.6-8.6,8.6,8.6,0,0,1-8.6,8.6Zm0-12.907a4.3,4.3,0,1,0,4.3,4.3,4.3,4.3,0,0,0-4.3-4.3Z" transform="translate(13.813 9.209)" fill="url(#a)"/><path d="M10.3,10a4.3,4.3,0,1,0,4.3,4.3A4.3,4.3,0,0,0,10.3,10Z" transform="translate(6.907 11.511)" fill="#0962cc"/><path d="M57.929,38.418H6.3a4.313,4.313,0,0,1-4.3-4.3V8.3A4.313,4.313,0,0,1,6.3,4H57.929a4.313,4.313,0,0,1,4.3,4.3V34.116a4.308,4.308,0,0,1-4.3,4.3Zm0-30.116H6.3V34.116H57.929Z" transform="translate(2.302 4.604)" fill="#0962cc"/></g></svg>