<svg xmlns="http://www.w3.org/2000/svg" xmlns:xlink="http://www.w3.org/1999/xlink" width="77.937" height="77.937" viewBox="0 0 77.937 77.937"><defs><linearGradient id="a" y1="1" x2="1" y2="1" gradientUnits="objectBoundingBox"><stop offset="0" stop-color="#f15a29"/><stop offset="1" stop-color="#f7941d"/></linearGradient></defs><g transform="translate(0 -0.179)"><rect width="77.937" height="77.937" transform="translate(0 0.179)" fill="none"/><g transform="translate(4.896 5.074)"><path d="M283.4,54.338A34.079,34.079,0,0,0,256,0V3.993a30.087,30.087,0,0,1,24.258,47.876l-.458-5.232-3.978.348,1.044,11.933L288.8,57.874l-.348-3.978Z" transform="translate(-221.927)" fill="#0962cc" stroke="#0962cc" stroke-width="1"/><path d="M3.993,94.182a29.856,29.856,0,0,1,5.822-17.8l.458,5.232,3.978-.348L13.206,69.338,1.273,70.382l.348,3.978,5.051-.442a34.079,34.079,0,0,0,27.4,54.338v-3.993a30.08,30.08,0,0,1-30.08-30.08Z" transform="translate(0 -60.109)" fill="#0962cc" stroke="#0962cc" stroke-width="1"/><path d="M504.836-226.719a5.373,5.373,0,0,1-4.635-2.665l-5.016-8.69a5.353,5.353,0,0,1,0-5.336l5.087-8.761a5.336,5.336,0,0,1,4.615-2.657l10.095-.048a5.367,5.367,0,0,1,4.635,2.668l5.016,8.687h0a5.374,5.374,0,0,1,0,5.324l-5.087,8.744a5.352,5.352,0,0,1-4.615,2.654Zm9.812-5.548-14.475-8.478,4.83,8.365,9.739-.057,4.909-8.416-4.83-8.362-9.741.042Zm14.735,8.309-9.736-16.9" transform="translate(-475.832 274.871)" fill="url(#a)"/></g></g></svg>