<svg xmlns="http://www.w3.org/2000/svg" xmlns:xlink="http://www.w3.org/1999/xlink" width="78" height="78" viewBox="0 0 78 78"><defs><linearGradient id="a" y1="1" x2="1" y2="1" gradientUnits="objectBoundingBox"><stop offset="0" stop-color="#f15a29"/><stop offset="1" stop-color="#f7941d"/></linearGradient></defs><g transform="translate(-210.486 -210.707)"><rect width="78" height="78" transform="translate(210.486 210.707)" fill="none"/><path d="M268.84,237.67v31.69h4.87V237.67Zm-14.63,0v31.69h4.88V237.67Zm-14.62,0v31.69h4.87V237.67Zm-14.63,0v31.69h4.88V237.67Z" stroke="rgba(0,0,0,0)" stroke-width="1" fill="url(#a)"/><rect width="67" height="4" transform="translate(215.986 279.707)" fill="#0962cc"/><path d="M220.583,269.36v4.87h58.5v-4.87Zm56.9-43.73-26.82-9.75a2.371,2.371,0,0,0-1.66,0l-26.81,9.75a2.455,2.455,0,0,0-1.61,2.29v7.31a2.437,2.437,0,0,0,2.44,2.44h53.63a2.441,2.441,0,0,0,2.43-2.44v-7.31A2.432,2.432,0,0,0,277.483,225.63Zm-3.27,7.16h-48.75v-3.17l24.37-8.87,24.38,8.87Z" fill="#0962cc"/></g></svg>