<svg xmlns="http://www.w3.org/2000/svg" xmlns:xlink="http://www.w3.org/1999/xlink" width="69" height="69" viewBox="0 0 69 69"><defs><linearGradient id="a" y1="1" x2="1" y2="1" gradientUnits="objectBoundingBox"><stop offset="0" stop-color="#f15a29"/><stop offset="1" stop-color="#f7941d"/></linearGradient></defs><g transform="translate(0.405)"><path d="M35.915,60.023l-3.749-2.155,8.619-15.083H53.713a4.309,4.309,0,0,0,4.309-4.309V12.619a4.309,4.309,0,0,0-4.309-4.309H10.619a4.309,4.309,0,0,0-4.309,4.309V38.475a4.309,4.309,0,0,0,4.309,4.309H30.011v4.309H10.619A8.619,8.619,0,0,1,2,38.475V12.619A8.619,8.619,0,0,1,10.619,4H53.713a8.619,8.619,0,0,1,8.619,8.619V38.475a8.619,8.619,0,0,1-8.619,8.619H43.284Z" transform="translate(2.146 4.619)" fill="#0962cc"/><rect width="35" height="5" transform="translate(16.595 22)" fill="url(#a)"/><rect width="22" height="5" transform="translate(16.595 35)" fill="url(#a)"/><rect width="69" height="69" transform="translate(-0.405 0)" fill="none"/></g></svg>