<svg xmlns="http://www.w3.org/2000/svg" xmlns:xlink="http://www.w3.org/1999/xlink" width="69" height="69" viewBox="0 0 69 69"><defs><linearGradient id="a" y1="0.5" x2="1" y2="0.5" gradientUnits="objectBoundingBox"><stop offset="0" stop-color="#f15a29"/><stop offset="1" stop-color="#f7941d"/></linearGradient></defs><rect width="24.387" height="4.313" transform="translate(15.714 50.224) rotate(-45)" fill="url(#a)"/><rect width="69" height="69" fill="none"/><path d="M34.346,62.375a2.148,2.148,0,0,1-2.135-1.854L30.055,45.427l4.313-.6,1.617,11.363,6.986-5.628V34.344a2.156,2.156,0,0,1,.625-1.531l8.776-8.776a19.277,19.277,0,0,0,5.692-13.714V6.313H54.054A19.277,19.277,0,0,0,40.34,12.005l-8.776,8.776a2.156,2.156,0,0,1-1.531.625H13.818L8.191,28.436l11.363,1.617-.6,4.312L3.856,32.209a2.16,2.16,0,0,1-1.38-3.493L11.1,17.935a2.156,2.156,0,0,1,1.682-.841H29.149l8.129-8.151A23.546,23.546,0,0,1,54.054,2h4.011a4.313,4.313,0,0,1,4.313,4.313v4.011A23.546,23.546,0,0,1,55.434,27.1l-8.151,8.129V51.594a2.156,2.156,0,0,1-.819,1.682L35.683,61.9a2.156,2.156,0,0,1-1.337.474Z" transform="translate(2.31 2.312)" fill="#0962cc"/></svg>