<svg xmlns="http://www.w3.org/2000/svg" xmlns:xlink="http://www.w3.org/1999/xlink" width="69" height="69" viewBox="0 0 69 69"><defs><linearGradient id="a" y1="1" x2="1" y2="1" gradientUnits="objectBoundingBox"><stop offset="0" stop-color="#f15a29"/><stop offset="1" stop-color="#f7941d"/></linearGradient></defs><rect width="69" height="69" fill="none"/><g transform="translate(-19.125 4.313)"><g transform="translate(26.57)"><g transform="translate(0)"><path d="M135.467,202.358A2.358,2.358,0,0,0,133.109,200H108.817a2.358,2.358,0,1,0,0,4.717h24.291A2.358,2.358,0,0,0,135.467,202.358Z" transform="translate(-97.039 -176.416)" fill="url(#a)"/><path d="M108.817,280a2.358,2.358,0,0,0,0,4.717H123.57a2.358,2.358,0,0,0,0-4.717Z" transform="translate(-97.038 -246.982)" fill="#0962cc"/><path d="M43.891,55.658H36a4.722,4.722,0,0,1-4.717-4.717V9.434A4.722,4.722,0,0,1,36,4.717H65a4.722,4.722,0,0,1,4.717,4.717v14.5a2.358,2.358,0,0,0,4.717,0V9.434A9.444,9.444,0,0,0,65,0H36A9.444,9.444,0,0,0,26.57,9.434V50.941A9.444,9.444,0,0,0,36,60.375h7.888a2.358,2.358,0,0,0,0-4.717Z" transform="translate(-26.57)" fill="#0962cc"/><path d="M269.921,274.093a7.082,7.082,0,0,0-10,0L246.97,287.011a2.359,2.359,0,0,0-.591.984l-2.82,9.283a2.358,2.358,0,0,0,2.886,2.958l9.519-2.637A2.358,2.358,0,0,0,257,297l12.921-12.9A7.083,7.083,0,0,0,269.921,274.093Zm-15.814,19.126-4.789,1.327,1.4-4.614,8.737-8.717,3.336,3.336Zm12.481-12.457-.457.456-3.335-3.335.455-.454a2.358,2.358,0,0,1,3.337,3.334Z" transform="translate(-217.882 -239.947)" fill="url(#a)"/><path d="M133.109,120H108.817a2.358,2.358,0,1,0,0,4.717h24.291a2.358,2.358,0,0,0,0-4.717Z" transform="translate(-97.039 -105.85)" fill="#0962cc"/></g></g></g></svg>