<svg xmlns="http://www.w3.org/2000/svg" xmlns:xlink="http://www.w3.org/1999/xlink" width="70.43" height="69.503" viewBox="0 0 70.43 69.503"><defs><linearGradient id="a" y1="1" x2="1" y2="1" gradientUnits="objectBoundingBox"><stop offset="0" stop-color="#f15a29"/><stop offset="1" stop-color="#f7941d"/></linearGradient><linearGradient id="c" y1="0.5" y2="0.5" xlink:href="#a"/></defs><g transform="translate(-969.806 -1624.673)"><rect width="70.43" height="69.503" transform="translate(969.806 1624.673)" fill="none"/><g transform="translate(476.356 2456.091)"><path d="M518.249-762.789H503.385a7.432,7.432,0,0,0-7.431,7.431v4.954h4.955v-4.954a2.478,2.478,0,0,1,2.477-2.477h14.863a2.478,2.478,0,0,1,2.477,2.477v4.956h4.955v-4.956a7.432,7.432,0,0,0-7.431-7.431Z" transform="translate(1.143 -14.793)" fill="url(#a)"/><path d="M513.027-775.206a9.909,9.909,0,0,0,9.909-9.909,9.909,9.909,0,0,0-9.909-9.909,9.909,9.909,0,0,0-9.909,9.909A9.909,9.909,0,0,0,513.027-775.206Zm0-14.863a4.955,4.955,0,0,1,4.956,4.954,4.954,4.954,0,0,1-4.954,4.956,4.955,4.955,0,0,1-4.956-4.954h0A4.955,4.955,0,0,1,513.027-790.069Z" transform="translate(-1.067 -4.853)" fill="url(#a)"/><path d="M563.066-820.963v21.717a7.174,7.174,0,0,1-7.176,7.168h-8.834l-6.18,10.948-4.27-2.408,7.585-13.438h11.7a2.277,2.277,0,0,0,2.278-2.27v-21.717a2.279,2.279,0,0,0-2.278-2.278H519.7a2.277,2.277,0,0,0-2.27,2.278v11.8h-4.9v-11.8a7.169,7.169,0,0,1,7.168-7.176H555.89A7.176,7.176,0,0,1,563.066-820.963Z" transform="translate(-2.833 0)" fill="#0962cc"/><rect width="28.566" height="4.899" transform="translate(520.658 -817.775)" fill="url(#c)"/><rect width="17.73" height="4.899" transform="translate(520.658 -807.067)" fill="url(#c)"/></g></g></svg>