<svg xmlns="http://www.w3.org/2000/svg" xmlns:xlink="http://www.w3.org/1999/xlink" width="69" height="69" viewBox="0 0 69 69"><defs><linearGradient id="a" y1="0.5" x2="1" y2="0.5" gradientUnits="objectBoundingBox"><stop offset="0" stop-color="#f15a29"/><stop offset="1" stop-color="#f7941d"/></linearGradient></defs><path d="M49.656,26.562H45.344V9.313H13V5H45.344a4.317,4.317,0,0,1,4.312,4.312Z" transform="translate(15.031 5.781)" fill="#0962cc"/><path d="M44.656,31.563H40.344V14.313H8V10H40.344a4.317,4.317,0,0,1,4.313,4.313Z" transform="translate(9.25 11.563)" fill="#0962cc"/><path d="M36.5,40.875H6.313A4.317,4.317,0,0,1,2,36.563V19.313A4.317,4.317,0,0,1,6.313,15H36.5a4.317,4.317,0,0,1,4.313,4.313v17.25A4.317,4.317,0,0,1,36.5,40.875ZM6.313,19.313v17.25H36.5l0-17.25Z" transform="translate(2.312 17.344)" fill="url(#a)"/><rect width="69" height="69" fill="none"/></svg>