<svg xmlns="http://www.w3.org/2000/svg" xmlns:xlink="http://www.w3.org/1999/xlink" width="78" height="78" viewBox="0 0 78 78"><defs><linearGradient id="a" y1="0.5" x2="1" y2="0.5" gradientUnits="objectBoundingBox"><stop offset="0" stop-color="#f15a29"/><stop offset="1" stop-color="#f7941d"/></linearGradient></defs><path d="M35.291,30.842a33.8,33.8,0,0,0-5.439-18.371L26.326,16a29.017,29.017,0,0,1,4.085,14.844Z" transform="translate(37.911 17.96)" fill="#0962cc"/><path d="M51.042,11.45,47.591,8l-20.9,20.9a9.643,9.643,0,0,0-4.927-1.383,9.76,9.76,0,1,0,9.76,9.76,9.646,9.646,0,0,0-1.383-4.927ZM21.76,42.161a4.88,4.88,0,1,1,4.88-4.88,4.88,4.88,0,0,1-4.88,4.88Z" transform="translate(17.281 11.521)" fill="url(#a)"/><path d="M36.161,10.88a29.058,29.058,0,0,1,14.844,4.085l3.547-3.547A34.106,34.106,0,0,0,2,40.161H6.88A29.315,29.315,0,0,1,36.161,10.88Z" transform="translate(2.88 8.641)" fill="#0962cc"/><rect width="78" height="78" fill="none"/></svg>