<svg xmlns="http://www.w3.org/2000/svg" xmlns:xlink="http://www.w3.org/1999/xlink" width="78" height="78" viewBox="0 0 78 78"><defs><linearGradient id="a" y1="0.5" x2="1" y2="0.5" gradientUnits="objectBoundingBox"><stop offset="0" stop-color="#f15a29"/><stop offset="1" stop-color="#f7941d"/></linearGradient></defs><g transform="translate(-0.146 0.146)"><path d="M48.572,12v4.876H51.01v9.753a7.314,7.314,0,1,1-14.629,0V16.876H38.82V12H31.505V26.629a12.211,12.211,0,0,0,9.753,11.944v2.685a9.753,9.753,0,1,1-19.505,0V35.932a7.314,7.314,0,1,0-4.876,0v5.326a14.629,14.629,0,0,0,29.258,0V38.573a12.211,12.211,0,0,0,9.753-11.944V12ZM19.315,26.629a2.438,2.438,0,1,1-2.438,2.438,2.438,2.438,0,0,1,2.438-2.438Z" transform="translate(17.236 17.258)" fill="url(#a)"/><path d="M57.639,6.876H47.886V2H43.01V6.876H23.505V2H18.629V6.876H8.876A4.876,4.876,0,0,0,4,11.753V60.515a4.876,4.876,0,0,0,4.876,4.876h9.753V60.515H8.876V11.753h9.753v4.876h4.876V11.753H43.01v4.876h4.876V11.753h9.753v9.753h4.876V11.753A4.876,4.876,0,0,0,57.639,6.876Z" transform="translate(5.731 2.876)" fill="#0962cc"/><rect width="78" height="78" transform="translate(0.146 -0.146)" fill="none"/></g></svg>