<svg xmlns="http://www.w3.org/2000/svg" xmlns:xlink="http://www.w3.org/1999/xlink" width="504" height="506.441" viewBox="0 0 504 506.441"><defs><linearGradient id="a" x2="1" gradientUnits="objectBoundingBox"><stop offset="0" stop-color="#f15a29"/><stop offset="1" stop-color="#f7941d"/></linearGradient></defs><g transform="translate(-610.156 -1299.611)"><path d="M135.511,0a22.659,22.659,0,0,1,19.6,11.3l37.567,64.821a22.659,22.659,0,0,1,0,22.724l-37.567,64.821a22.659,22.659,0,0,1-19.6,11.3H60.226a22.659,22.659,0,0,1-19.6-11.3L3.054,98.842a22.659,22.659,0,0,1,0-22.724L40.622,11.3A22.659,22.659,0,0,1,60.227,0Z" transform="translate(909.573 1299.611) rotate(30)" fill="#0962cc" opacity="0.499"/><path d="M97.88,0a16.367,16.367,0,0,1,14.16,8.16l27.135,46.82a16.367,16.367,0,0,1,0,16.414l-27.135,46.821a16.367,16.367,0,0,1-14.16,8.16H43.5a16.367,16.367,0,0,1-14.16-8.16L2.206,71.394a16.367,16.367,0,0,1,0-16.414L29.341,8.16A16.367,16.367,0,0,1,43.5,0Z" transform="translate(991.716 1488.585) rotate(30)" fill="#0962cc" opacity="0.302"/><path d="M207.265,0A34.657,34.657,0,0,1,237.25,17.279l57.459,99.144a34.657,34.657,0,0,1,0,34.756l-57.46,99.144A34.657,34.657,0,0,1,207.265,267.6H92.116a34.657,34.657,0,0,1-29.985-17.279L4.672,151.179a34.657,34.657,0,0,1,0-34.756l57.46-99.144A34.657,34.657,0,0,1,92.117,0Z" transform="translate(743.957 1424.611) rotate(30)" fill="url(#a)"/><g transform="translate(411.717 2210.796)"><path d="M525.459-762.789H505.788a9.835,9.835,0,0,0-9.834,9.835v6.556h6.557v-6.556a3.279,3.279,0,0,1,3.279-3.279h19.67a3.279,3.279,0,0,1,3.279,3.279v6.558h6.557v-6.558a9.835,9.835,0,0,0-9.835-9.835Z" transform="translate(1.143 1.556)" fill="#f0f0f0"/><path d="M516.231-768.8a13.113,13.113,0,0,0,13.114-13.113,13.113,13.113,0,0,0-13.114-13.113,13.113,13.113,0,0,0-13.113,13.113A13.113,13.113,0,0,0,516.231-768.8Zm0-19.669a6.557,6.557,0,0,1,6.559,6.556,6.556,6.556,0,0,1-6.556,6.558,6.557,6.557,0,0,1-6.559-6.556h0A6.557,6.557,0,0,1,516.231-788.467Z" transform="translate(0.535 4.287)" fill="#f0f0f0"/><path d="M579.409-818.643V-789.9a9.494,9.494,0,0,1-9.5,9.486h-11.69l-8.179,14.488-5.651-3.187L554.429-786.9h15.483a3.013,3.013,0,0,0,3.014-3v-28.739a3.016,3.016,0,0,0-3.014-3.014h-47.9a3.013,3.013,0,0,0-3,3.014v15.622H512.53v-15.622a9.487,9.487,0,0,1,9.486-9.5h47.9A9.5,9.5,0,0,1,579.409-818.643Z" transform="translate(1.242 0)" fill="#f0f0f0"/><rect width="37.803" height="6.483" transform="translate(528.278 -814.423)" fill="#f0f0f0"/><rect width="23.464" height="6.483" transform="translate(528.278 -800.252)" fill="#f0f0f0"/></g><g transform="translate(986.414 1543.724)"><path d="M8.139,22.07V20H4v2.07A14.488,14.488,0,0,0,18.488,36.557H24.7V32.418H18.488A10.348,10.348,0,0,1,8.139,22.07Z" transform="translate(6.093 23.207)" fill="#f0f0f0"/><path d="M32.557,18.488v2.07H36.7v-2.07A14.488,14.488,0,0,0,22.209,4H16V8.139h6.209A10.348,10.348,0,0,1,32.557,18.488Z" transform="translate(18.928 6.093)" fill="#f0f0f0"/><path d="M20.627,11H8.209A6.209,6.209,0,0,0,2,17.209v4.139H6.139V17.209a2.07,2.07,0,0,1,2.07-2.07H20.627a2.07,2.07,0,0,1,2.07,2.07v4.139h4.139V17.209A6.209,6.209,0,0,0,20.627,11Z" transform="translate(3.953 13.58)" fill="#f0f0f0"/><path d="M12.279,18.557A8.279,8.279,0,1,0,4,10.279a8.279,8.279,0,0,0,8.279,8.279Zm0-12.418a4.139,4.139,0,1,1-4.139,4.139A4.139,4.139,0,0,1,12.279,6.139Z" transform="translate(6.093 3.953)" fill="#f0f0f0"/><path d="M36.627,25H24.209A6.209,6.209,0,0,0,18,31.209v4.139h4.139V31.209a2.07,2.07,0,0,1,2.07-2.07H36.627a2.07,2.07,0,0,1,2.07,2.07v4.139h4.139V31.209A6.209,6.209,0,0,0,36.627,25Z" transform="translate(21.068 28.555)" fill="#f0f0f0"/><path d="M20,24.279A8.279,8.279,0,1,0,28.279,16,8.279,8.279,0,0,0,20,24.279Zm12.418,0a4.139,4.139,0,1,1-4.139-4.139A4.139,4.139,0,0,1,32.418,24.279Z" transform="translate(23.207 18.928)" fill="#f0f0f0"/></g><g transform="translate(732.103 1539.557)"><path d="M51.428,95.913H11.886V11.886h88.97V51.428h9.886V11.886A9.886,9.886,0,0,0,100.856,2H11.886A9.886,9.886,0,0,0,2,11.886V95.913a9.886,9.886,0,0,0,9.886,9.886H51.428Z" transform="translate(3.938 3.938)" fill="#f0f0f0"/><path d="M85.21,78.191,69.838,62.819a29.657,29.657,0,1,0-7.019,7.019L78.191,85.21ZM45.668,65.439A19.771,19.771,0,1,1,65.439,45.668,19.771,19.771,0,0,1,45.668,65.439Z" transform="translate(59.125 59.125)" fill="#f0f0f0"/><rect width="38.125" height="11.914" transform="translate(24.919 22.536)" fill="#f0f0f0"/><rect width="20.254" height="9.531" transform="translate(24.919 45.173)" fill="#f0f0f0"/></g></g></svg>