<svg xmlns="http://www.w3.org/2000/svg" xmlns:xlink="http://www.w3.org/1999/xlink" width="1682.958" height="1633.155" viewBox="0 0 1682.958 1633.155"><defs><linearGradient id="a" y1="1" x2="1" y2="1" gradientUnits="objectBoundingBox"><stop offset="0" stop-color="#f15a29"/><stop offset="1" stop-color="#f7941d"/></linearGradient><clipPath id="d"><path d="M909.225,0a148.386,148.386,0,0,1,128.383,73.981L1283.623,498.47a148.385,148.385,0,0,1,0,148.81l-246.015,424.489a148.386,148.386,0,0,1-128.383,73.981H416.214a148.385,148.385,0,0,1-128.383-73.981L41.815,647.28a148.386,148.386,0,0,1,0-148.81L287.831,73.981A148.386,148.386,0,0,1,416.214,0Z" transform="translate(912.266 -346.564) rotate(30)" fill="url(#a)"/></clipPath><clipPath id="e"><path d="M815.964,0A132.791,132.791,0,0,1,930.854,66.206l220.16,379.878a132.79,132.79,0,0,1,0,133.171L930.854,959.132a132.791,132.791,0,0,1-114.891,66.206h-441.2a132.791,132.791,0,0,1-114.891-66.206L39.713,579.255a132.791,132.791,0,0,1,0-133.171L259.874,66.206A132.791,132.791,0,0,1,374.764,0Z" transform="translate(940.495 -260.746) rotate(30)" fill="url(#a)"/></clipPath><clipPath id="f"><path d="M648.775,0a104.835,104.835,0,0,1,90.7,52.268l173.811,299.9a104.835,104.835,0,0,1,0,105.135l-173.811,299.9a104.835,104.835,0,0,1-90.7,52.268H300.459a104.835,104.835,0,0,1-90.7-52.268L35.945,457.307a104.835,104.835,0,0,1,0-105.135l173.811-299.9A104.835,104.835,0,0,1,300.459,0Z" transform="translate(991.1 -106.903) rotate(30)" fill="url(#a)"/></clipPath><image id="g" width="2275.156" height="1280.84" xlink:href="Group%203695-image.jpg"/></defs><g transform="translate(-358.281 335.657)"><g clip-path="url(#d)"><use transform="translate(-209 -157)" xlink:href="#g"/></g><path d="M909.225,0a148.386,148.386,0,0,1,128.383,73.981L1283.623,498.47a148.385,148.385,0,0,1,0,148.81l-246.015,424.489a148.386,148.386,0,0,1-128.383,73.981H416.214a148.385,148.385,0,0,1-128.383-73.981L41.815,647.28a148.386,148.386,0,0,1,0-148.81L287.831,73.981A148.386,148.386,0,0,1,416.214,0Z" transform="translate(912.266 -346.563) rotate(30)" fill="#fff" opacity="0.101"/><g clip-path="url(#e)"><use transform="translate(-87) scale(0.92 0.92)" xlink:href="#g"/><use transform="translate(-209 -157)" xlink:href="#g"/></g><path d="M815.964,0A132.791,132.791,0,0,1,930.854,66.206l220.16,379.878a132.79,132.79,0,0,1,0,133.171L930.854,959.132a132.791,132.791,0,0,1-114.891,66.206h-441.2a132.791,132.791,0,0,1-114.891-66.206L39.713,579.255a132.791,132.791,0,0,1,0-133.171L259.874,66.206A132.791,132.791,0,0,1,374.764,0Z" transform="translate(940.495 -260.746) rotate(30)" fill="#fff" opacity="0.3"/><g clip-path="url(#f)"><use transform="translate(-87) scale(0.92 0.92)" xlink:href="#g"/><use transform="translate(-209 -157)" xlink:href="#g"/></g><path d="M648.775,0a104.835,104.835,0,0,1,90.7,52.268l173.811,299.9a104.835,104.835,0,0,1,0,105.135l-173.811,299.9a104.835,104.835,0,0,1-90.7,52.268H300.459a104.835,104.835,0,0,1-90.7-52.268L35.945,457.307a104.835,104.835,0,0,1,0-105.135l173.811-299.9A104.835,104.835,0,0,1,300.459,0Z" transform="translate(991.1 -106.903) rotate(30)" fill="none" opacity="0.1"/></g></svg>