<?xml version="1.0" encoding="utf-8"?>
<!-- Generator: Adobe Illustrator 24.2.3, SVG Export Plug-In . SVG Version: 6.00 Build 0)  -->
<svg version="1.1" id="Layer_1" xmlns="http://www.w3.org/2000/svg" xmlns:xlink="http://www.w3.org/1999/xlink" x="0px" y="0px"
	 viewBox="0 0 104.5 116.2" style="enable-background:new 0 0 104.5 116.2;" xml:space="preserve">
<style type="text/css">
	.st0{filter:url(#a);}
	.st1{fill:#284C8F;}
</style>
<filter  filterUnits="userSpaceOnUse" height="166.386" id="a" width="170.911" x="0" y="0">
	<feOffset  dy="3" input="SourceAlpha"></feOffset>
	<feGaussianBlur  result="b" stdDeviation="3"></feGaussianBlur>
	<feFlood  flood-opacity="0.161"></feFlood>
	<feComposite  in2="b" operator="in"></feComposite>
	<feComposite  in="SourceGraphic" operator="over"></feComposite>
</filter>
<g transform="matrix(1, 0, 0, 1, 0, 0)" class="st0">
	<path class="st1" d="M97.7,24.2c4.2,2.4,6.7,6.8,6.7,11.7l0.1,44.6c0,4.8-2.6,9.3-6.8,11.7l-38.6,22.2c-4.2,2.4-9.3,2.4-13.5,0
		L6.8,92c-4.2-2.4-6.7-6.8-6.7-11.7L0,35.7c0-4.8,2.6-9.3,6.8-11.7L45.4,1.8c4.2-2.4,9.3-2.4,13.5,0L97.7,24.2z"/>
</g>
</svg>
