<svg xmlns="http://www.w3.org/2000/svg" xmlns:xlink="http://www.w3.org/1999/xlink" width="929.074" height="867.127" viewBox="0 0 929.074 867.127"><defs><linearGradient id="a" y1="1" x2="1" y2="1" gradientUnits="objectBoundingBox"><stop offset="0" stop-color="#f15a29"/><stop offset="1" stop-color="#f7941d"/></linearGradient><clipPath id="c"><path d="M612.315,651.091,766.79,384.59a76.676,76.676,0,0,0-.038-76.866L609.873,39.848A77.293,77.293,0,0,0,542.984,1.386L231.635,0a77.3,77.3,0,0,0-66.856,38.406L10.308,304.9a76.662,76.662,0,0,0,.041,76.862L167.228,649.648a77.3,77.3,0,0,0,66.891,38.467l311.35,1.378A77.3,77.3,0,0,0,612.315,651.091Z" transform="matrix(0.966, 0.259, -0.259, 0.966, 178.454, 0)" opacity="0.867" fill="url(#a)"/></clipPath><clipPath id="d"><path d="M491.718,522.857,615.769,308.844a61.574,61.574,0,0,0-.03-61.727L489.757,32A62.07,62.07,0,0,0,436.042,1.113L186.014,0a62.072,62.072,0,0,0-53.689,30.842L8.278,244.849a61.563,61.563,0,0,0,.033,61.724L134.292,521.7a62.076,62.076,0,0,0,53.717,30.891L438.038,553.7A62.073,62.073,0,0,0,491.718,522.857Z" transform="matrix(0.966, 0.259, -0.259, 0.966, 143.307, 0)" opacity="0.867" fill="url(#a)"/></clipPath><image id="e" width="885" height="796" xlink:href="inner-hex.jpg"/></defs><g transform="translate(0)"><path d="M612.315,651.091,766.79,384.59a76.676,76.676,0,0,0-.038-76.866L609.873,39.848A77.293,77.293,0,0,0,542.984,1.386L231.635,0a77.3,77.3,0,0,0-66.856,38.406L10.308,304.9a76.662,76.662,0,0,0,.041,76.862L167.228,649.648a77.3,77.3,0,0,0,66.891,38.467l311.35,1.378A77.3,77.3,0,0,0,612.315,651.091Z" transform="matrix(0.966, 0.259, -0.259, 0.966, 178.454, 0)" fill="#f0f0f0"/><g transform="translate(0.001 0)" opacity="0.601" clip-path="url(#c)"><path d="M612.315,651.091,766.79,384.59a76.676,76.676,0,0,0-.038-76.866L609.873,39.848A77.293,77.293,0,0,0,542.984,1.386L231.635,0a77.3,77.3,0,0,0-66.856,38.406L10.308,304.9a76.662,76.662,0,0,0,.041,76.862L167.228,649.648a77.3,77.3,0,0,0,66.891,38.467l311.35,1.378A77.3,77.3,0,0,0,612.315,651.091Z" transform="matrix(0.966, 0.259, -0.259, 0.966, 178.454, 0)" opacity="0"/><use transform="translate(20.764 50.127)" xlink:href="#e"/></g><g transform="translate(91.493 85.392)" clip-path="url(#d)"><use transform="translate(-70.729 -35.265)" xlink:href="#e"/></g></g></svg>