<?xml version="1.0" encoding="utf-8"?>
<!-- Generator: Adobe Illustrator 25.2.0, SVG Export Plug-In . SVG Version: 6.00 Build 0)  -->
<svg version="1.1" id="Layer_1" xmlns="http://www.w3.org/2000/svg" xmlns:xlink="http://www.w3.org/1999/xlink" x="0px" y="0px"
	 viewBox="0 0 168.2 100.8" style="enable-background:new 0 0 168.2 100.8;" xml:space="preserve">
<style type="text/css">
	.st0{fill:url(#Path_1_1_);}
	.st1{fill:#FFFFFF;}
	.st2{fill:none;stroke:#FF00FF;stroke-width:29.498;stroke-linecap:round;stroke-linejoin:round;}
	.st3{fill:url(#Path_7_1_);}
	.st4{fill:url(#Path_8_1_);}
	.st5{fill:url(#Path_1-2_2_);}
	.st6{fill:#0C3E9E;}
	.st7{fill:url(#Path_7-2_2_);}
	.st8{fill:url(#Path_8-2_2_);}
	.st9{fill:none;stroke:#0C3E9E;stroke-miterlimit:10;}
	.st10{fill:url(#Path_1-2_3_);}
	.st11{fill:url(#Path_7-2_3_);}
	.st12{fill:url(#Path_8-2_3_);}
</style>
<g>
	<g id="Group_3794-2_1_" transform="translate(-14356.035 15571.248)">
		<g id="Group_1-2_1_" transform="translate(516.18 373.004)">
			
				<linearGradient id="Path_1-2_2_" gradientUnits="userSpaceOnUse" x1="13697.2227" y1="-15875.9531" x2="13697.2227" y2="-15874.9688" gradientTransform="matrix(10.3068 0 0 -9.231 -127221.5234 -162469.6562)">
				<stop  offset="0" style="stop-color:#F15A29"/>
				<stop  offset="0.997" style="stop-color:#F7941D"/>
			</linearGradient>
			<path id="Path_1-2_1_" class="st5" d="M13954.5-15927.8h-4c-0.4,0-0.8,0.2-1,0.6l-2,3.5c-0.2,0.4-0.2,0.8,0,1.1l2,3.5
				c0.2,0.4,0.6,0.6,1,0.6h4c0.4,0,0.8-0.2,1-0.6l2-3.5c0.2-0.4,0.2-0.8,0-1.1l-2-3.5
				C13955.3-15927.6,13954.9-15927.8,13954.5-15927.8z"/>
			<path id="Path_2-2_1_" class="st1" d="M13939.5-15894.3v-11.4c0-2.7-1.3-4.6-3.9-4.6s-3.9,1.8-3.9,4.6v11.4
				c0.1,2-1.4,3.7-3.4,3.8c-2,0.1-3.7-1.4-3.8-3.4c0-0.1,0-0.3,0-0.4v-28.2c-0.1-2,1.4-3.7,3.4-3.8c2-0.1,3.7,1.4,3.8,3.4
				c0,0.1,0,0.3,0,0.4v8.7h0.1c1.6-1.8,4-2.8,6.5-2.7c5.5,0,8.5,3.9,8.5,9.3v12.8c0.1,2-1.4,3.7-3.4,3.8s-3.7-1.4-3.8-3.4
				C13939.5-15894,13939.5-15894.2,13939.5-15894.3L13939.5-15894.3z"/>
			<path id="Path_3-2_1_" class="st1" d="M13948.9-15894.3v-18c-0.1-2,1.4-3.7,3.4-3.8s3.7,1.4,3.8,3.4c0,0.1,0,0.3,0,0.4v18
				c0.1,2-1.4,3.7-3.4,3.8s-3.7-1.4-3.8-3.4C13948.9-15894,13948.9-15894.2,13948.9-15894.3z"/>
			<path id="Path_4-2_1_" class="st1" d="M13964.6-15894.9l-6.5-16.1c-0.2-0.5-0.4-1.1-0.4-1.7c0.1-2,1.7-3.5,3.7-3.4
				c1.5,0.1,2.8,1.1,3.3,2.5l4.8,13.1h0.1l4.6-13.1c0.5-1.8,2.4-2.9,4.3-2.4c1.5,0.4,2.5,1.8,2.5,3.3c0,0.6-0.1,1.2-0.4,1.7
				l-6.5,16.1c-1.3,3.3-2.4,4.4-4.8,4.4S13966-15891.6,13964.6-15894.9z"/>
			<path id="Path_5-2_1_" class="st1" d="M13981.7-15897.4c-0.6-1.9-0.9-3.9-0.8-6c-0.1-2,0.2-4.1,0.8-6c1.5-4.6,5.5-7.1,10.8-7.1
				c5.5,0,9.4,2.6,10.8,7c0.6,1.9,0.9,3.9,0.8,5.8c0.1,1.2-0.8,2.3-2.1,2.4c-0.1,0-0.2,0-0.3,0h-13.3c-0.1,0-0.3,0.1-0.3,0.2
				c0,0,0,0.1,0,0.1c0,0.5,0.1,1,0.3,1.4c0.7,2.1,2.6,3.3,5.2,3.3c1.7,0,3.3-0.5,4.7-1.3c0.7-0.5,1.6-0.7,2.5-0.8
				c1.4,0,2.6,1.1,2.6,2.6c0,0,0,0.1,0,0.1c0,1.1-0.5,2-1.4,2.6c-2.7,1.8-5.8,2.8-9.1,2.7
				C13987.1-15890.2,13983.1-15892.9,13981.7-15897.4z M13996.6-15905.9c0.1,0,0.3-0.1,0.3-0.2c0,0,0-0.1,0-0.1
				c0-0.6-0.1-1.3-0.3-1.9c-0.6-1.8-2.3-2.9-4.2-2.7c-1.8-0.2-3.6,1-4.1,2.7c-0.2,0.6-0.3,1.2-0.3,1.9c0,0.1,0.1,0.3,0.2,0.3
				c0,0,0.1,0,0.1,0H13996.6z"/>
		</g>
		<g id="Group_4-2_1_" transform="translate(435.035 359.752)">
			<g id="Group_2-2_1_" transform="translate(4.521 0)">
				
					<linearGradient id="Path_7-2_2_" gradientUnits="userSpaceOnUse" x1="13755.916" y1="-15823.3271" x2="13755.5859" y2="-15823.3271" gradientTransform="matrix(66.388 0 0 -46.049 -899240.4375 -744553.875)">
					<stop  offset="0" style="stop-color:#F15A29"/>
					<stop  offset="0.997" style="stop-color:#F7941D"/>
				</linearGradient>
				<path id="Path_7-2_1_" class="st7" d="M13989.3-15901l-5.6-9.8c-1.3-2-3.4-2.7-5.2,0.2c-3.1,4.9-6.7,6.7-11.8,6.7h-16.8
					c-1.8,0-3.2-1.5-3.2-3.2c0-1.8,1.4-3.2,3.2-3.2h10.1c0.8,0,1.4-0.7,1.3-1.4c0,0,0,0,0-0.1c-0.1-0.7-0.6-1.4-1.3-1.5h-11.9
					c-2.3,0-2.9,0.2-4.9,3.7l0,0l-2.5,4.5c-0.9,1.5-2.9,2-4.4,1.1c-1.5-0.9-2-2.8-1.1-4.3l2.7-4.7c2.1-3.7,3.8-6.8,9.9-6.8h19.5
					c2.2,0,4-1.8,4-4.1c0-2.1-1.7-3.8-3.8-4h-24.3c-3.9,0-7.5,2.1-9.5,5.5c0,0-4.7,7.6-7.5,12.9c-2.9,5.3-3,13.5,8.7,13.5h41.2
					c11.7,0,11.6,8.6,8.7,13.9c-0.1,0.1-0.1,0.2-0.2,0.3l4.9-8.3C13991.3-15893.4,13991.3-15897.6,13989.3-15901z"/>
			</g>
			<g id="Group_3-2_1_" transform="translate(0 18.392)">
				
					<linearGradient id="Path_8-2_2_" gradientUnits="userSpaceOnUse" x1="13759.9355" y1="-15841.8037" x2="13760.0625" y2="-15841.4717" gradientTransform="matrix(66.3951 0 0 -45.693 -899638.4375 -739764)">
					<stop  offset="0" style="stop-color:#0962CC"/>
					<stop  offset="1" style="stop-color:#05409E"/>
				</linearGradient>
				<path id="Path_8-2_1_" class="st8" d="M13980.5-15914.3h-41.2c-11.7,0-11.6-8.2-8.7-13.5l0,0l-4.7,8c-2,3.4-2,7.6,0,11l5.6,9.8
					c1.3,2,3.4,2.7,5.2-0.2c3.1-4.9,6.7-6.7,11.8-6.7h16.8c1.8,0,3.2,1.5,3.2,3.2c0,1.8-1.4,3.2-3.2,3.2h-10.1
					c-0.8,0-1.4,0.7-1.3,1.4c0,0,0,0,0,0.1c0.1,0.7,0.6,1.4,1.3,1.5h11.9c2.3,0,2.9-0.2,4.9-3.7l0,0l2.5-4.5c0.9-1.5,2.9-2,4.4-1.1
					c1.5,0.9,2,2.8,1.1,4.3l-2.7,4.7c-2.2,3.7-3.8,6.8-9.9,6.8h-19.5c-2.2,0-4,1.8-4,4c0,2.2,1.8,4,4,4h24.1c3.9,0,7.5-2.1,9.5-5.5
					c0,0,4.5-7.3,7.4-12.6l0.2-0.3C13992.1-15905.8,13992.2-15914.3,13980.5-15914.3z"/>
			</g>
		</g>
	</g>
	<path id="Path_32573-2_1_" class="st1" d="M10.4,89.7c0.1,1-0.4,1.9-1.1,2.5c-0.9,0.6-2.1,1-3.2,0.9H4.8v4.2H3.5V86.5h2.8
		C9,86.5,10.4,87.6,10.4,89.7z M4.8,92h1.1c0.8,0.1,1.7-0.1,2.4-0.5c0.5-0.4,0.8-1.1,0.7-1.7c0-0.6-0.2-1.2-0.7-1.6
		c-0.7-0.4-1.4-0.6-2.2-0.5H4.8L4.8,92z M23.5,91.9c0.1,1.5-0.4,2.9-1.3,4.1c-0.9,1-2.3,1.6-3.6,1.5c-1.4,0.1-2.7-0.4-3.7-1.5
		c-0.9-1.2-1.4-2.6-1.3-4.1c-0.1-1.5,0.4-2.9,1.3-4.1c1-1,2.3-1.5,3.7-1.4c1.4-0.1,2.7,0.5,3.6,1.5C23.1,89,23.6,90.4,23.5,91.9z
		 M14.9,91.9c-0.1,1.2,0.2,2.4,0.9,3.3c0.7,0.8,1.7,1.2,2.7,1.1c1,0.1,2-0.3,2.7-1.1c0.7-1,1-2.1,0.9-3.3c0.1-1.2-0.2-2.3-0.9-3.3
		c-0.7-0.8-1.7-1.2-2.7-1.1c-1-0.1-2,0.3-2.7,1.1C15.1,89.6,14.8,90.7,14.9,91.9L14.9,91.9z M36.6,97.3h-1.2l-2.2-7.2
		c-0.1-0.3-0.2-0.7-0.3-1.2c-0.1-0.3-0.2-0.6-0.2-0.9c-0.1,0.7-0.3,1.4-0.5,2.1l-2.1,7.2h-1.2l-2.9-10.8h1.3l1.7,6.7
		c0.2,0.8,0.4,1.7,0.5,2.5c0.1-0.9,0.3-1.8,0.6-2.6l1.9-6.5h1.3l2,6.6c0.3,0.8,0.5,1.7,0.6,2.6c0.1-0.9,0.3-1.7,0.5-2.5l1.7-6.6h1.3
		L36.6,97.3z M48.7,97.3h-6V86.5h6v1.1H44v3.5h4.5v1.1H44v4h4.8V97.3z M53.9,92.8v4.5h-1.3V86.5h2.9c1-0.1,2.1,0.2,2.9,0.8
		c0.7,0.6,1,1.4,0.9,2.3c0.1,1.4-0.9,2.6-2.2,2.9l2.9,4.8h-1.5l-2.6-4.5H53.9z M53.9,91.7h1.7c0.7,0.1,1.4-0.1,1.9-0.5
		c0.4-0.4,0.7-1,0.6-1.6c0.1-0.6-0.2-1.2-0.6-1.5c-0.6-0.4-1.3-0.5-2-0.5h-1.6L53.9,91.7z M69.4,97.3h-6V86.5h6v1.1h-4.7v3.5h4.5
		v1.1h-4.5v4h4.7V97.3z M81.9,91.8c0.1,1.5-0.4,3-1.4,4.1c-1.1,1-2.6,1.5-4.2,1.4h-3V86.5h3.3c1.4-0.1,2.8,0.4,3.9,1.4
		C81.5,89,82,90.4,81.9,91.8L81.9,91.8z M80.6,91.9c0.1-1.2-0.3-2.3-1.1-3.2c-0.9-0.8-2-1.2-3.1-1.1h-1.8v8.6h1.5
		c1.2,0.1,2.4-0.3,3.4-1.1C80.3,94.2,80.7,93,80.6,91.9L80.6,91.9z M91.2,86.5h3c1.1-0.1,2.1,0.1,3.1,0.6c0.7,0.5,1,1.2,1,2
		c0,0.6-0.2,1.1-0.5,1.6c-0.4,0.4-1,0.7-1.6,0.8v0.1c1.6,0.3,2.5,1.1,2.5,2.6c0,0.9-0.3,1.7-1,2.3C97,97.1,96,97.4,95,97.3h-3.8
		L91.2,86.5z M92.5,91.1h2.1c0.7,0.1,1.3-0.1,1.9-0.4c0.4-0.3,0.6-0.9,0.6-1.4c0-0.5-0.2-1-0.6-1.3c-0.6-0.3-1.4-0.5-2.1-0.4h-1.8
		L92.5,91.1z M92.5,92.2v4h2.3c0.7,0,1.4-0.1,2-0.5c0.5-0.4,0.7-1,0.7-1.6c0-0.6-0.2-1.1-0.7-1.5c-0.6-0.4-1.3-0.5-2.1-0.5
		L92.5,92.2z M105.1,91.9l2.9-5.4h1.4l-3.6,6.6v4.2h-1.3v-4.1l-3.6-6.7h1.4L105.1,91.9z M126.4,91.8c0.1,1.5-0.4,3-1.4,4.1
		c-1.1,1-2.6,1.5-4.2,1.4h-3V86.5h3.3c1.4-0.1,2.8,0.4,3.9,1.4C126,89,126.5,90.4,126.4,91.8L126.4,91.8z M125,91.9
		c0.1-1.2-0.3-2.3-1.1-3.2c-0.9-0.8-2-1.2-3.1-1.1H119v8.6h1.5c1.2,0.1,2.4-0.3,3.4-1.1C124.7,94.2,125.1,93,125,91.9L125,91.9z
		 M138.5,97.3h-1.3v-5.1h-5.7v5.1h-1.2V86.5h1.3v4.6h5.7v-4.6h1.3L138.5,97.3z M147.7,97.3l-3.6-9.5H144c0.1,0.8,0.1,1.7,0.1,2.7
		v6.8h-1.2V86.5h1.9l3.4,8.9h0.1l3.4-8.9h1.9v10.8h-1.3v-6.9c0-0.8,0-1.7,0.1-2.6h-0.1l-3.7,9.5H147.7z M164.1,94.4
		c0,0.9-0.3,1.7-1,2.2c-0.8,0.6-1.8,0.9-2.8,0.8c-1,0-2-0.1-2.9-0.5v-1.2c0.5,0.2,0.9,0.3,1.4,0.4c0.5,0.1,1,0.2,1.5,0.2
		c0.7,0,1.3-0.1,1.9-0.5c0.4-0.3,0.7-0.8,0.6-1.3c0-0.3-0.1-0.6-0.2-0.9c-0.2-0.3-0.5-0.5-0.8-0.7c-0.5-0.3-1.1-0.5-1.6-0.7
		c-0.8-0.2-1.5-0.7-2.1-1.3c-0.4-0.5-0.7-1.2-0.6-1.9c0-0.8,0.3-1.5,0.9-2c0.7-0.5,1.6-0.8,2.5-0.7c1,0,2,0.2,3,0.6l-0.4,1.1
		c-0.8-0.4-1.7-0.5-2.6-0.6c-0.6,0-1.1,0.1-1.6,0.4c-0.4,0.3-0.6,0.7-0.6,1.2c0,0.3,0.1,0.6,0.2,0.9c0.2,0.3,0.4,0.5,0.7,0.7
		c0.5,0.3,1,0.5,1.5,0.7c0.9,0.2,1.7,0.7,2.3,1.3C163.9,93.1,164.1,93.8,164.1,94.4z"/>
	<rect x="3.4" y="78.5" class="st1" width="160.9" height="1"/>
</g>
</svg>
