<svg xmlns="http://www.w3.org/2000/svg" width="157.718" height="153.051" viewBox="0 0 157.718 153.051"><g transform="translate(-409.672 -1352.967)"><g transform="translate(463.359 1352.967) rotate(30)" fill="none"><path d="M83.164,0A13.906,13.906,0,0,1,95.2,6.933L118.25,46.714a13.906,13.906,0,0,1,0,13.946L95.2,100.441a13.906,13.906,0,0,1-12.031,6.933h-46.2a13.906,13.906,0,0,1-12.031-6.933L1.875,60.66a13.906,13.906,0,0,1,0-13.946L24.93,6.933A13.906,13.906,0,0,1,36.961,0Z" stroke="none"/><path d="M 36.96123504638672 12 C 36.28376770019531 12 35.65190887451172 12.36410522460938 35.31221008300781 12.95024871826172 L 12.25693511962891 52.73116302490234 C 11.91526794433594 53.3206901550293 11.91526794433594 54.05308151245117 12.25693511962891 54.64258193969727 L 35.31217956542969 94.42352294921875 C 35.65190887451172 95.00966644287109 36.28376770019531 95.37377166748047 36.96121215820313 95.37377166748047 L 83.16376495361328 95.37377166748047 C 83.84120941162109 95.37377166748047 84.47306823730469 95.00966644287109 84.81276702880859 94.42352294921875 L 107.8680419921875 54.64260864257813 C 108.2097091674805 54.05308151245117 108.2097091674805 53.3206901550293 107.8680419921875 52.7311897277832 L 84.81278991699219 12.95024871826172 C 84.47306823730469 12.36410522460938 83.84120941162109 12 83.16376495361328 12 L 36.96123504638672 12 M 36.96123504638672 0 L 83.16376495361328 0 C 88.12368774414063 0 92.70809936523438 2.641777038574219 95.19515991210938 6.933082580566406 L 118.2504348754883 46.71402359008789 C 120.7498245239258 51.02663421630859 120.7498245239258 56.34713745117188 118.2504348754883 60.65974807739258 L 95.19515991210938 100.4406890869141 C 92.70809936523438 104.7319946289063 88.1236572265625 107.3737716674805 83.16376495361328 107.3737716674805 L 36.96121215820313 107.3737716674805 C 32.00129699707031 107.3737716674805 27.41687774658203 104.7319946289063 24.92982482910156 100.4406890869141 L 1.874542236328125 60.65974807739258 C -0.624847412109375 56.34713745117188 -0.624847412109375 51.02663421630859 1.874542236328125 46.71402359008789 L 24.92982482910156 6.933082580566406 C 27.41687774658203 2.641777038574219 32.00131988525391 0 36.96123504638672 0 Z" stroke="none" fill="#fff"/></g><path d="M23.476,0A23.476,23.476,0,1,0,46.951,23.476,23.472,23.472,0,0,0,23.476,0ZM37.107,26.126a1.139,1.139,0,0,1-1.136,1.136H27.262v8.709a1.139,1.139,0,0,1-1.136,1.136h-5.3a1.139,1.139,0,0,1-1.136-1.136V27.262H10.981a1.139,1.139,0,0,1-1.136-1.136v-5.3a1.139,1.139,0,0,1,1.136-1.136h8.709V10.981a1.139,1.139,0,0,1,1.136-1.136h5.3a1.139,1.139,0,0,1,1.136,1.136v8.709h8.709a1.139,1.139,0,0,1,1.136,1.136Z" transform="translate(464.636 1406.025)" fill="#fff"/></g></svg>