<svg xmlns="http://www.w3.org/2000/svg" xmlns:xlink="http://www.w3.org/1999/xlink" width="790.632" height="599.669" viewBox="0 0 790.632 599.669"><defs><linearGradient id="a" y1="1" x2="1" y2="1" gradientUnits="objectBoundingBox"><stop offset="0" stop-color="#f15a29"/><stop offset="1" stop-color="#f7941d"/></linearGradient></defs><g transform="translate(-893.063 -4940)"><path d="M373.449-758.914,395.3-796.6a10.843,10.843,0,0,0-.005-10.87L373.1-845.357a10.931,10.931,0,0,0-9.46-5.439l-44.032-.2a10.931,10.931,0,0,0-9.455,5.432l-21.845,37.688a10.842,10.842,0,0,0,.006,10.87L310.5-759.118a10.932,10.932,0,0,0,9.46,5.44l44.032.195A10.931,10.931,0,0,0,373.449-758.914Z" transform="translate(669.758 6293.153)" opacity="0.521" fill="url(#a)"/><path d="M500.887-623.407l54-93.154a26.8,26.8,0,0,0-.013-26.868l-54.837-93.635a27.018,27.018,0,0,0-23.381-13.444l-108.831-.484a27.018,27.018,0,0,0-23.369,13.425l-53.994,93.151a26.8,26.8,0,0,0,.014,26.867l54.836,93.638a27.02,27.02,0,0,0,23.382,13.446l108.831.482A27.018,27.018,0,0,0,500.887-623.407Z" transform="translate(1125.208 5885.992)" fill="url(#a)"/><path d="M455.295-671.886,497.789-745.2a21.092,21.092,0,0,0-.01-21.145L454.623-840.03a21.263,21.263,0,0,0-18.4-10.581l-85.648-.381a21.263,21.263,0,0,0-18.391,10.565l-42.493,73.308a21.089,21.089,0,0,0,.011,21.144l43.155,73.691a21.264,21.264,0,0,0,18.4,10.582l85.648.379A21.262,21.262,0,0,0,455.295-671.886Z" transform="translate(606.208 5790.992)" opacity="0.521" fill="url(#a)"/></g></svg>