<svg xmlns="http://www.w3.org/2000/svg" xmlns:xlink="http://www.w3.org/1999/xlink" width="95.982" height="85.162" viewBox="0 0 95.982 85.162"><defs><linearGradient id="a" y1="1" x2="1" y2="1" gradientUnits="objectBoundingBox"><stop offset="0" stop-color="#f15a29"/><stop offset="1" stop-color="#f7941d"/></linearGradient></defs><path d="M362.484-770.573l19.08-32.917a9.47,9.47,0,0,0,0-9.494L362.183-846.07a9.547,9.547,0,0,0-8.262-4.751l-38.456-.171a9.547,9.547,0,0,0-8.258,4.744l-19.079,32.916a9.469,9.469,0,0,0,.005,9.494l19.377,33.087A9.548,9.548,0,0,0,315.772-766l38.456.17A9.547,9.547,0,0,0,362.484-770.573Z" transform="translate(-286.855 850.992)" opacity="0.522" fill="url(#a)"/></svg>