<svg xmlns="http://www.w3.org/2000/svg" xmlns:xlink="http://www.w3.org/1999/xlink" width="98.618" height="87.5" viewBox="0 0 98.618 87.5"><defs><linearGradient id="a" y1="1" x2="1" y2="1" gradientUnits="objectBoundingBox"><stop offset="0" stop-color="#f15a29"/><stop offset="1" stop-color="#f7941d"/></linearGradient></defs><path d="M364.561-768.365l19.6-33.82a9.731,9.731,0,0,0,0-9.755l-19.909-33.995a9.809,9.809,0,0,0-8.488-4.881l-39.512-.176a9.809,9.809,0,0,0-8.484,4.874l-19.6,33.819a9.729,9.729,0,0,0,.005,9.754l19.909,34a9.81,9.81,0,0,0,8.489,4.882l39.512.175A9.809,9.809,0,0,0,364.561-768.365Z" transform="translate(-286.855 850.992)" fill="url(#a)"/></svg>