<svg xmlns="http://www.w3.org/2000/svg" xmlns:xlink="http://www.w3.org/1999/xlink" width="89" height="78.967" viewBox="0 0 89 78.967"><defs><linearGradient id="a" y1="1" x2="1" y2="1" gradientUnits="objectBoundingBox"><stop offset="0" stop-color="#f15a29"/><stop offset="1" stop-color="#f7941d"/></linearGradient></defs><path d="M356.983-776.424l17.692-30.522a8.782,8.782,0,0,0,0-8.8L356.7-846.428a8.852,8.852,0,0,0-7.661-4.4l-35.658-.159a8.853,8.853,0,0,0-7.657,4.4l-17.691,30.521a8.78,8.78,0,0,0,0,8.8l17.967,30.68a8.853,8.853,0,0,0,7.661,4.405l35.658.158A8.853,8.853,0,0,0,356.983-776.424Z" transform="translate(-286.855 850.992)" opacity="0.522" fill="url(#a)"/></svg>