<svg xmlns="http://www.w3.org/2000/svg" xmlns:xlink="http://www.w3.org/1999/xlink" width="115.239" height="102.248" viewBox="0 0 115.239 102.248"><defs><linearGradient id="a" y1="1" x2="1" y2="1" gradientUnits="objectBoundingBox"><stop offset="0" stop-color="#f15a29"/><stop offset="1" stop-color="#f7941d"/></linearGradient></defs><path d="M377.657-754.44l22.908-39.52a11.37,11.37,0,0,0-.006-11.4L377.3-845.083a11.462,11.462,0,0,0-9.919-5.7l-46.171-.206a11.462,11.462,0,0,0-9.914,5.7l-22.907,39.519a11.369,11.369,0,0,0,.006,11.4l23.264,39.725a11.463,11.463,0,0,0,9.92,5.7l46.171.2A11.463,11.463,0,0,0,377.657-754.44Z" transform="translate(-286.855 850.992)" fill="url(#a)"/></svg>