<svg xmlns="http://www.w3.org/2000/svg" xmlns:xlink="http://www.w3.org/1999/xlink" width="143.235" height="127.087" viewBox="0 0 143.235 127.087"><defs><linearGradient id="a" y1="1" x2="1" y2="1" gradientUnits="objectBoundingBox"><stop offset="0" stop-color="#f15a29"/><stop offset="1" stop-color="#f7941d"/></linearGradient></defs><path d="M399.717-730.983,428.19-780.1a14.133,14.133,0,0,0-.007-14.168l-28.916-49.375a14.247,14.247,0,0,0-12.329-7.089l-57.388-.255a14.247,14.247,0,0,0-12.323,7.079l-28.472,49.12a14.131,14.131,0,0,0,.008,14.167l28.916,49.376a14.248,14.248,0,0,0,12.329,7.09l57.388.254A14.247,14.247,0,0,0,399.717-730.983Z" transform="translate(-286.855 850.992)" opacity="0.522" fill="url(#a)"/></svg>