<svg xmlns="http://www.w3.org/2000/svg" xmlns:xlink="http://www.w3.org/1999/xlink" width="57.951" height="51.418" viewBox="0 0 57.951 51.418"><defs><linearGradient id="a" y1="1" x2="1" y2="1" gradientUnits="objectBoundingBox"><stop offset="0" stop-color="#f15a29"/><stop offset="1" stop-color="#f7941d"/></linearGradient></defs><path d="M332.517-802.438l11.52-19.874a5.718,5.718,0,0,0,0-5.732l-11.7-19.976a5.764,5.764,0,0,0-4.988-2.868l-23.218-.1a5.764,5.764,0,0,0-4.986,2.864l-11.519,19.873a5.717,5.717,0,0,0,0,5.732l11.7,19.977a5.765,5.765,0,0,0,4.988,2.869l23.218.1A5.764,5.764,0,0,0,332.517-802.438Z" transform="translate(-286.855 850.992)" fill="url(#a)"/></svg>