<svg xmlns="http://www.w3.org/2000/svg" width="71.542" height="69.288" viewBox="0 0 71.542 69.288"><g transform="translate(-314.542 -1120.59)"><path d="M329.9-805.223l10.859-18.734a5.39,5.39,0,0,0,0-5.4l-11.028-18.83a5.434,5.434,0,0,0-4.7-2.7l-21.886-.1a5.433,5.433,0,0,0-4.7,2.7l-10.859,18.733a5.389,5.389,0,0,0,0,5.4l11.028,18.831a5.434,5.434,0,0,0,4.7,2.7l21.886.1A5.433,5.433,0,0,0,329.9-805.223Z" transform="translate(-335.144 1714.143) rotate(30)" fill="#f7941d"/><g transform="translate(338.835 1140.501)"><path d="M17.025,4.293a5.732,5.732,0,1,1-5.732,5.732,5.732,5.732,0,0,1,5.732-5.732m0-2.293a8.025,8.025,0,1,0,8.025,8.025A8.025,8.025,0,0,0,17.025,2Z" transform="translate(-5.561 -2)" fill="#fff"/><path d="M28.928,31.757H26.635V26.025A5.732,5.732,0,0,0,20.9,20.293H14.025a5.732,5.732,0,0,0-5.732,5.732v5.732H6V26.025A8.025,8.025,0,0,1,14.025,18H20.9a8.025,8.025,0,0,1,8.025,8.025Z" transform="translate(-6 0.342)" fill="#fff"/></g></g></svg>