<svg xmlns="http://www.w3.org/2000/svg" xmlns:xlink="http://www.w3.org/1999/xlink" width="300.141" height="291.792" viewBox="0 0 300.141 291.792"><defs><filter id="a" x="0" y="0" width="300.141" height="291.792" filterUnits="userSpaceOnUse"><feOffset dy="3" input="SourceAlpha"/><feGaussianBlur stdDeviation="3" result="b"/><feFlood flood-opacity="0.161"/><feComposite operator="in" in2="b"/><feComposite in="SourceGraphic"/></filter></defs><g transform="matrix(1, 0, 0, 1, 0, 0)" filter="url(#a)"><path d="M148.771,0a24.876,24.876,0,0,1,21.523,12.4l41.243,71.164a24.876,24.876,0,0,1,0,24.947l-41.243,71.164a24.876,24.876,0,0,1-21.523,12.4H66.12a24.876,24.876,0,0,1-21.523-12.4L3.353,108.514a24.876,24.876,0,0,1,0-24.947L44.6,12.4A24.876,24.876,0,0,1,66.12,0Z" transform="translate(105.04 6) rotate(30)" fill="#fff" opacity="0.197"/></g></svg>