<svg xmlns="http://www.w3.org/2000/svg" xmlns:xlink="http://www.w3.org/1999/xlink" width="154.475" height="138.08" viewBox="0 0 154.475 138.08"><defs><linearGradient id="a" y1="1" x2="1" y2="1" gradientUnits="objectBoundingBox"><stop offset="0" stop-color="#f15a29"/><stop offset="1" stop-color="#f7941d"/></linearGradient></defs><path d="M-6071.055-11325.921h-59.415a17.91,17.91,0,0,1-8.929-2.389,17.92,17.92,0,0,1-6.544-6.527l-29.648-51.157a17.906,17.906,0,0,1-2.41-8.968,17.9,17.9,0,0,1,2.41-8.965l29.648-51.158a17.92,17.92,0,0,1,6.544-6.527,17.91,17.91,0,0,1,8.929-2.389h59.415a17.91,17.91,0,0,1,8.928,2.389,17.91,17.91,0,0,1,6.542,6.527l29.648,51.158a17.9,17.9,0,0,1,2.41,8.965,17.906,17.906,0,0,1-2.41,8.968l-29.648,51.157a17.9,17.9,0,0,1-6.542,6.527A17.907,17.907,0,0,1-6071.055-11325.921ZM-6126.166-11454a15.306,15.306,0,0,0-7.636,2.043,15.311,15.311,0,0,0-5.6,5.581l-25.353,43.746a15.306,15.306,0,0,0-2.063,7.669,15.306,15.306,0,0,0,2.063,7.669l25.353,43.746a15.3,15.3,0,0,0,5.6,5.581,15.306,15.306,0,0,0,7.636,2.043h50.807a15.306,15.306,0,0,0,7.636-2.043,15.313,15.313,0,0,0,5.6-5.581l25.353-43.746a15.319,15.319,0,0,0,2.061-7.669,15.319,15.319,0,0,0-2.061-7.669l-25.353-43.746a15.328,15.328,0,0,0-5.6-5.581,15.306,15.306,0,0,0-7.636-2.043Z" transform="translate(6178.001 11464.001)" fill="url(#a)"/></svg>