<svg xmlns="http://www.w3.org/2000/svg" xmlns:xlink="http://www.w3.org/1999/xlink" width="411.073" height="399.441" viewBox="0 0 411.073 399.441"><defs><filter id="a" x="0" y="0" width="411.073" height="399.441" filterUnits="userSpaceOnUse"><feOffset dy="3" input="SourceAlpha"/><feGaussianBlur stdDeviation="3" result="b"/><feFlood flood-opacity="0.161"/><feComposite operator="in" in2="b"/><feComposite in="SourceGraphic"/></filter></defs><g transform="matrix(1, 0, 0, 1, 0, 0)" filter="url(#a)"><path d="M207.265,0A34.657,34.657,0,0,1,237.25,17.279l57.459,99.144a34.657,34.657,0,0,1,0,34.756l-57.46,99.144A34.657,34.657,0,0,1,207.265,267.6H92.116a34.657,34.657,0,0,1-29.985-17.279L4.672,151.179a34.657,34.657,0,0,1,0-34.756l57.46-99.144A34.657,34.657,0,0,1,92.117,0Z" transform="translate(142.8 6) rotate(30)" fill="#284b8a" opacity="0.601"/></g></svg>