<svg xmlns="http://www.w3.org/2000/svg" xmlns:xlink="http://www.w3.org/1999/xlink" width="356.173" height="346.166" viewBox="0 0 356.173 346.166"><defs><filter id="a" x="0" y="0" width="356.173" height="346.166" filterUnits="userSpaceOnUse"><feOffset dy="3" input="SourceAlpha"/><feGaussianBlur stdDeviation="3" result="b"/><feFlood flood-opacity="0.161"/><feComposite operator="in" in2="b"/><feComposite in="SourceGraphic"/></filter></defs><g transform="matrix(1, 0, 0, 1, 0, 0)" filter="url(#a)"><path d="M200.129,0a29.817,29.817,0,0,1,25.8,14.866l49.434,85.3a29.817,29.817,0,0,1,0,29.9l-49.434,85.3a29.817,29.817,0,0,1-25.8,14.866H101.064a29.817,29.817,0,0,1-25.8-14.866l-49.434-85.3a29.817,29.817,0,0,1,0-29.9l49.434-85.3A29.817,29.817,0,0,1,101.064,0Z" transform="translate(105.22 -4.91) rotate(30)" fill="#27488c" opacity="0.497"/></g></svg>