<svg xmlns="http://www.w3.org/2000/svg" xmlns:xlink="http://www.w3.org/1999/xlink" width="294.966" height="286.77" viewBox="0 0 294.966 286.77"><defs><filter id="a" x="0" y="0" width="294.966" height="286.77" filterUnits="userSpaceOnUse"><feOffset dy="3" input="SourceAlpha"/><feGaussianBlur stdDeviation="3" result="b"/><feFlood flood-opacity="0.161"/><feComposite operator="in" in2="b"/><feComposite in="SourceGraphic"/></filter></defs><g transform="matrix(1, 0, 0, 1, 0, 0)" filter="url(#a)"><path d="M167.855,0a24.42,24.42,0,0,1,21.128,12.175L229.47,82.034a24.42,24.42,0,0,1,0,24.49l-40.487,69.859a24.42,24.42,0,0,1-21.128,12.175H86.72a24.42,24.42,0,0,1-21.128-12.175L25.1,106.523a24.42,24.42,0,0,1,0-24.49L65.591,12.175A24.42,24.42,0,0,1,86.72,0Z" transform="translate(84.39 -4.91) rotate(30)" fill="#2a69cd" opacity="0.701"/></g></svg>