<svg xmlns="http://www.w3.org/2000/svg" xmlns:xlink="http://www.w3.org/1999/xlink" width="170.911" height="166.386" viewBox="0 0 170.911 166.386"><defs><filter id="a" x="0" y="0" width="170.911" height="166.386" filterUnits="userSpaceOnUse"><feOffset dy="3" input="SourceAlpha"/><feGaussianBlur stdDeviation="3" result="b"/><feFlood flood-opacity="0.161"/><feComposite operator="in" in2="b"/><feComposite in="SourceGraphic"/></filter></defs><g transform="matrix(1, 0, 0, 1, 0, 0)" filter="url(#a)"><path d="M102.441,0a13.482,13.482,0,0,1,11.665,6.722L136.459,45.29a13.482,13.482,0,0,1,0,13.521L114.106,97.379a13.482,13.482,0,0,1-11.665,6.722H57.647a13.482,13.482,0,0,1-11.665-6.722L23.63,58.811a13.482,13.482,0,0,1,0-13.521L45.983,6.722A13.482,13.482,0,0,1,57.647,0Z" transform="translate(42.16 -4.91) rotate(30)" fill="#274fa1" opacity="0.401"/></g></svg>