<svg xmlns="http://www.w3.org/2000/svg" xmlns:xlink="http://www.w3.org/1999/xlink" width="156.738" height="152.632" viewBox="0 0 156.738 152.632"><defs><filter id="a" x="0" y="0" width="156.738" height="152.632" filterUnits="userSpaceOnUse"><feOffset dy="3" input="SourceAlpha"/><feGaussianBlur stdDeviation="3" result="b"/><feFlood flood-opacity="0.161"/><feComposite operator="in" in2="b"/><feComposite in="SourceGraphic"/></filter></defs><g transform="matrix(1, 0, 0, 1, 0, 0)" filter="url(#a)"><path d="M73.156,0A12.232,12.232,0,0,1,83.739,6.1L104.02,41.092a12.232,12.232,0,0,1,0,12.267L83.739,88.353a12.233,12.233,0,0,1-10.583,6.1H32.513a12.232,12.232,0,0,1-10.583-6.1L1.649,53.36a12.232,12.232,0,0,1,0-12.267L21.93,6.1A12.232,12.232,0,0,1,32.513,0Z" transform="translate(56.23 6) rotate(30)" fill="#fff" opacity="0.197"/></g></svg>