<svg xmlns="http://www.w3.org/2000/svg" xmlns:xlink="http://www.w3.org/1999/xlink" width="588.398" height="571.519" viewBox="0 0 588.398 571.519"><defs><filter id="a" x="0" y="0" width="588.398" height="571.519" filterUnits="userSpaceOnUse"><feOffset dy="3" input="SourceAlpha"/><feGaussianBlur stdDeviation="3" result="b"/><feFlood flood-opacity="0.161"/><feComposite operator="in" in2="b"/><feComposite in="SourceGraphic"/></filter></defs><g transform="matrix(1, 0, 0, 1, 0, 0)" filter="url(#a)"><path d="M300.768,0A50.291,50.291,0,0,1,344.28,25.074l83.381,143.87a50.292,50.292,0,0,1,0,50.436L344.28,363.25a50.292,50.292,0,0,1-43.512,25.074H133.673A50.292,50.292,0,0,1,90.16,363.25L6.779,219.38a50.292,50.292,0,0,1,0-50.436L90.161,25.074A50.292,50.292,0,0,1,133.673,0Z" transform="translate(203.16 6) rotate(30)" fill="#fff" opacity="0.197"/></g></svg>