<svg xmlns="http://www.w3.org/2000/svg" xmlns:xlink="http://www.w3.org/1999/xlink" width="256.319" height="249.266" viewBox="0 0 256.319 249.266"><defs><filter id="a" x="0" y="0" width="256.319" height="249.266" filterUnits="userSpaceOnUse"><feOffset dy="3" input="SourceAlpha"/><feGaussianBlur stdDeviation="3" result="b"/><feFlood flood-opacity="0.161"/><feComposite operator="in" in2="b"/><feComposite in="SourceGraphic"/></filter></defs><g transform="matrix(1, 0, 0, 1, 0, 0)" filter="url(#a)"><path d="M125.664,0a21.012,21.012,0,0,1,18.18,10.476l34.837,60.111a21.012,21.012,0,0,1,0,21.073L143.844,151.77a21.013,21.013,0,0,1-18.18,10.476H55.85A21.012,21.012,0,0,1,37.67,151.77L2.833,91.659a21.012,21.012,0,0,1,0-21.073L37.67,10.476A21.013,21.013,0,0,1,55.85,0Z" transform="translate(90.12 6) rotate(30)" fill="#2960ae" opacity="0.501"/></g></svg>