<svg xmlns="http://www.w3.org/2000/svg" xmlns:xlink="http://www.w3.org/1999/xlink" width="129.379" height="126.083" viewBox="0 0 129.379 126.083"><defs><filter id="a" x="0" y="0" width="129.379" height="126.083" filterUnits="userSpaceOnUse"><feOffset dy="3" input="SourceAlpha"/><feGaussianBlur stdDeviation="3" result="b"/><feFlood flood-opacity="0.161"/><feComposite operator="in" in2="b"/><feComposite in="SourceGraphic"/></filter></defs><g transform="matrix(1, 0, 0, 1, 0, 0)" filter="url(#a)"><path d="M58.73,0a9.82,9.82,0,0,1,8.5,4.9L83.507,32.989a9.82,9.82,0,0,1,0,9.848L67.226,70.93a9.82,9.82,0,0,1-8.5,4.9H26.1a9.82,9.82,0,0,1-8.5-4.9L1.324,42.837a9.82,9.82,0,0,1,0-9.848L17.605,4.9A9.82,9.82,0,0,1,26.1,0Z" transform="translate(46.91 6) rotate(30)" fill="#27417c" opacity="0.504"/></g></svg>