<svg xmlns="http://www.w3.org/2000/svg" width="16.67" height="16.67" viewBox="0 0 16.67 16.67">
  <g id="Group_3580" data-name="Group 3580" transform="translate(-9.075 -10.604)">
    <path id="Icon_awesome-linkedin-in" data-name="Icon awesome-linkedin-in" d="M3.731,16.67H.275V5.541H3.731ZM2,4.023A2.011,2.011,0,1,1,4,2,2.018,2.018,0,0,1,2,4.023ZM16.666,16.67H13.218V11.253c0-1.291-.026-2.947-1.8-2.947-1.8,0-2.072,1.4-2.072,2.854V16.67H5.9V5.541H9.211V7.059h.048a3.631,3.631,0,0,1,3.27-1.8c3.5,0,4.141,2.3,4.141,5.295V16.67Z" transform="translate(9.075 10.603)"/>
  </g>
</svg>
