<svg xmlns="http://www.w3.org/2000/svg" xmlns:xlink="http://www.w3.org/1999/xlink" width="160.83" height="94.37" viewBox="0 0 160.83 94.37"><defs><linearGradient id="a" x1="0.5" y1="0.96" x2="0.5" y2="-0.024" gradientUnits="objectBoundingBox"><stop offset="0" stop-color="#f15a29"/><stop offset="0.997" stop-color="#f7941d"/></linearGradient><linearGradient id="b" x1="0.954" y1="0.5" x2="0.624" y2="0.5" xlink:href="#a"/><linearGradient id="c" x1="0.452" y1="0.508" x2="0.579" y2="0.176" gradientUnits="objectBoundingBox"><stop offset="0" stop-color="#0962cc"/><stop offset="1" stop-color="#05409e"/></linearGradient></defs><g transform="translate(-3.399 -3.101)"><g transform="translate(3.399 3.101)"><g transform="translate(81.204 13.346)"><path d="M13954.5-15927.8h-4a1.1,1.1,0,0,0-1,.6l-2,3.5a1.07,1.07,0,0,0,0,1.1l2,3.5a1.1,1.1,0,0,0,1,.6h4a1.1,1.1,0,0,0,1-.6l2-3.5a1.074,1.074,0,0,0,0-1.1l-2-3.5A1.1,1.1,0,0,0,13954.5-15927.8Z" transform="translate(-13924.506 15927.801)" fill="url(#a)"/><path d="M13939.494-15894.313v-11.4c0-2.7-1.3-4.6-3.9-4.6s-3.9,1.8-3.9,4.6v11.4a3.588,3.588,0,0,1-3.4,3.8,3.587,3.587,0,0,1-3.8-3.4v-28.589a3.591,3.591,0,0,1,3.4-3.8,3.591,3.591,0,0,1,3.8,3.4v9.1h.1a8.262,8.262,0,0,1,6.5-2.7c5.5,0,8.5,3.9,8.5,9.3v12.795a3.593,3.593,0,0,1-3.4,3.8,3.59,3.59,0,0,1-3.8-3.4c-.1,0-.1-.2-.1-.3Z" transform="translate(-13924.495 15927.801)" fill="#fff"/><path d="M13948.9-15894.31v-17.991a3.588,3.588,0,0,1,3.4-3.8,3.587,3.587,0,0,1,3.8,3.4v18.392a3.589,3.589,0,0,1-3.4,3.8,3.589,3.589,0,0,1-3.8-3.4Z" transform="translate(-13924.507 15927.794)" fill="#fff"/><path d="M13964.6-15894.91l-6.5-16.092a4.731,4.731,0,0,1-.4-1.7,3.5,3.5,0,0,1,3.7-3.4,3.789,3.789,0,0,1,3.3,2.5l4.8,13.095h.1l4.6-13.095a3.507,3.507,0,0,1,4.3-2.4,3.418,3.418,0,0,1,2.5,3.3,3.278,3.278,0,0,1-.4,1.7l-6.5,16.092c-1.3,3.3-2.4,4.4-4.8,4.4S13966-15891.61,13964.6-15894.91Z" transform="translate(-13924.509 15927.795)" fill="#fff"/><path d="M13981.7-15897.41a17.064,17.064,0,0,1-.8-6,17.412,17.412,0,0,1,.8-6c1.5-4.6,5.5-7.1,10.795-7.1,5.5,0,9.4,2.6,10.795,7a16.572,16.572,0,0,1,.8,5.8,2.238,2.238,0,0,1-2.1,2.4H13988.4c-.1,0-.3.1-.3.2v.1a3.2,3.2,0,0,0,.3,1.4c.7,2.1,2.6,3.3,5.2,3.3a9.474,9.474,0,0,0,4.7-1.3,5.273,5.273,0,0,1,2.5-.8,2.58,2.58,0,0,1,2.6,2.6v.1a3.013,3.013,0,0,1-1.4,2.6,15.449,15.449,0,0,1-9.1,2.7C13987.1-15890.212,13983.1-15892.911,13981.7-15897.41Zm14.893-8.5c.1,0,.3-.1.3-.2v-.1a6.285,6.285,0,0,0-.3-1.9,3.93,3.93,0,0,0-4.2-2.7,3.921,3.921,0,0,0-4.1,2.7,5.817,5.817,0,0,0-.3,1.9c0,.1.1.3.2.3h8.4Z" transform="translate(-13924.52 15927.796)" fill="#fff"/></g><g transform="translate(0 0)"><g transform="translate(4.686 0)"><path d="M13989.272-15901.013l-5.6-9.8c-1.3-2-3.4-2.7-5.2.2-3.1,4.9-6.7,6.7-11.795,6.7h-16.792a3.221,3.221,0,0,1-3.2-3.2,3.158,3.158,0,0,1,3.2-3.2h10.095a1.281,1.281,0,0,0,1.3-1.4v-.1a1.7,1.7,0,0,0-1.3-1.5h-11.9c-2.3,0-2.9.2-4.9,3.7h0l-2.5,4.5a3.234,3.234,0,0,1-4.4,1.1,3.117,3.117,0,0,1-1.1-4.3l2.7-4.7c2.1-3.7,3.8-6.8,9.9-6.8h19.491a4.032,4.032,0,0,0,4-4.1,4.112,4.112,0,0,0-3.8-4h-24.289a11.036,11.036,0,0,0-9.5,5.5s-4.7,7.6-7.5,12.895c-2.9,5.3-3,13.5,8.7,13.5h41.182c11.694,0,11.595,8.6,8.7,13.893-.1.1-.1.2-.2.3l4.9-8.3A11.143,11.143,0,0,0,13989.272-15901.013Z" transform="translate(-13924.567 15927.9)" fill="url(#b)"/></g><g transform="translate(0 18.483)"><path d="M13980.477-15914.306h-41.183c-11.7,0-11.595-8.2-8.7-13.5h0l-4.7,8a10.831,10.831,0,0,0,0,11l5.6,9.8c1.3,2,3.4,2.7,5.2-.2,3.1-4.9,6.7-6.7,11.795-6.7h16.792a3.221,3.221,0,0,1,3.2,3.2,3.159,3.159,0,0,1-3.2,3.2h-10.095a1.281,1.281,0,0,0-1.3,1.4v.1a1.7,1.7,0,0,0,1.3,1.5h11.9c2.3,0,2.9-.2,4.9-3.7h0l2.5-4.5a3.235,3.235,0,0,1,4.4-1.1,3.118,3.118,0,0,1,1.1,4.3l-2.7,4.7c-2.2,3.7-3.8,6.8-9.9,6.8h-19.49a4.01,4.01,0,0,0-4,4,4.01,4.01,0,0,0,4,4h24.088a11.036,11.036,0,0,0,9.5-5.5s4.5-7.3,7.4-12.594l.2-.3C13992.07-15905.811,13992.171-15914.306,13980.477-15914.306Z" transform="translate(-13924.4 15927.801)" fill="url(#c)"/></g></g></g><path d="M10.4,89.7a2.949,2.949,0,0,1-1.1,2.5,5.194,5.194,0,0,1-3.2.9H4.8v4.2H3.5V86.5H6.3C9,86.5,10.4,87.6,10.4,89.7ZM4.8,92H5.9a4.023,4.023,0,0,0,2.4-.5A1.9,1.9,0,0,0,9,89.8a1.989,1.989,0,0,0-.7-1.6,3.423,3.423,0,0,0-2.2-.5H4.8Zm18.692-.1a6.1,6.1,0,0,1-1.3,4.1,4.553,4.553,0,0,1-3.6,1.5,4.443,4.443,0,0,1-3.7-1.5,7.112,7.112,0,0,1,0-8.2,4.675,4.675,0,0,1,3.7-1.4,4.422,4.422,0,0,1,3.6,1.5A5.685,5.685,0,0,1,23.491,91.9Zm-8.6,0a4.74,4.74,0,0,0,.9,3.3,3.168,3.168,0,0,0,2.7,1.1,3.168,3.168,0,0,0,2.7-1.1,6.5,6.5,0,0,0,0-6.6,3.168,3.168,0,0,0-2.7-1.1,3.168,3.168,0,0,0-2.7,1.1,4.883,4.883,0,0,0-.9,3.3Zm21.69,5.4h-1.2l-2.2-7.2a10.373,10.373,0,0,1-.3-1.2,2.919,2.919,0,0,1-.2-.9,15.977,15.977,0,0,1-.5,2.1l-2.1,7.2h-1.2l-2.9-10.8h1.3l1.7,6.7a22.1,22.1,0,0,1,.5,2.5,10.952,10.952,0,0,1,.6-2.6l1.9-6.5h1.3l2,6.6a10.952,10.952,0,0,1,.6,2.6,18.417,18.417,0,0,1,.5-2.5l1.7-6.6h1.3Zm12.095,0h-6V86.5h6v1.1h-4.7v3.5h4.5v1.1h-4.5v4h4.8v1.1Zm5.2-4.5v4.5h-1.3V86.5h2.9a4.278,4.278,0,0,1,2.9.8,2.539,2.539,0,0,1,.9,2.3,2.813,2.813,0,0,1-2.2,2.9l2.9,4.8h-1.5l-2.6-4.5Zm0-1.1h1.7a2.505,2.505,0,0,0,1.9-.5,1.908,1.908,0,0,0,.6-1.6,1.616,1.616,0,0,0-.6-1.5,3.512,3.512,0,0,0-2-.5h-1.6Zm15.493,5.6h-6V86.5h6v1.1h-4.7v3.5h4.5v1.1h-4.5v4h4.7Zm12.495-5.5a5.563,5.563,0,0,1-1.4,4.1,5.657,5.657,0,0,1-4.2,1.4h-3V86.5h3.3a4.854,4.854,0,0,1,5.3,5.3Zm-1.3.1a4.2,4.2,0,0,0-1.1-3.2,4.109,4.109,0,0,0-3.1-1.1h-1.8v8.6h1.5a4.806,4.806,0,0,0,3.4-1.1,4.334,4.334,0,0,0,1.1-3.2Zm10.6-5.4h3a5.577,5.577,0,0,1,3.1.6,2.333,2.333,0,0,1,1,2,2.213,2.213,0,0,1-2.1,2.4v.1c1.6.3,2.5,1.1,2.5,2.6a2.9,2.9,0,0,1-1,2.3,3.633,3.633,0,0,1-2.7.8h-3.8Zm1.3,4.6h2.1a3.126,3.126,0,0,0,1.9-.4,1.815,1.815,0,0,0,.6-1.4,1.612,1.612,0,0,0-.6-1.3,3.776,3.776,0,0,0-2.1-.4h-1.8Zm0,1.1v4h2.3a3.512,3.512,0,0,0,2-.5,1.989,1.989,0,0,0,.7-1.6,1.8,1.8,0,0,0-.7-1.5,3.643,3.643,0,0,0-2.1-.5Zm12.594-.3,2.9-5.4h1.4l-3.6,6.6v4.2h-1.3V93.2l-3.6-6.7h1.4Zm21.291-.1a5.563,5.563,0,0,1-1.4,4.1,5.657,5.657,0,0,1-4.2,1.4h-3V86.5h3.3a4.854,4.854,0,0,1,5.3,5.3Zm-1.4.1a4.2,4.2,0,0,0-1.1-3.2,4.109,4.109,0,0,0-3.1-1.1h-1.8v8.6h1.5a4.806,4.806,0,0,0,3.4-1.1,4.334,4.334,0,0,0,1.1-3.2Zm13.494,5.4h-1.3V92.2h-5.7v5.1h-1.2V86.5h1.3v4.6h5.7V86.5h1.3Zm9.2,0-3.6-9.5h-.1a22.613,22.613,0,0,1,.1,2.7v6.8h-1.2V86.5h1.9l3.4,8.9h.1l3.4-8.9h1.9V97.3h-1.3V90.4a23.469,23.469,0,0,1,.1-2.6h-.1l-3.7,9.5Zm16.393-2.9a2.573,2.573,0,0,1-1,2.2,4.018,4.018,0,0,1-2.8.8,7.094,7.094,0,0,1-2.9-.5V95.7a7.362,7.362,0,0,0,1.4.4,7.715,7.715,0,0,0,1.5.2,3.2,3.2,0,0,0,1.9-.5,1.371,1.371,0,0,0,.6-1.3,2.919,2.919,0,0,0-.2-.9,2.7,2.7,0,0,0-.8-.7,11.107,11.107,0,0,0-1.6-.7,4.646,4.646,0,0,1-2.1-1.3,2.563,2.563,0,0,1-.6-1.9,2.516,2.516,0,0,1,.9-2,3.673,3.673,0,0,1,2.5-.7,8.022,8.022,0,0,1,3,.6l-.4,1.1a7.594,7.594,0,0,0-2.6-.6,2.933,2.933,0,0,0-1.6.4,1.425,1.425,0,0,0-.6,1.2,2.919,2.919,0,0,0,.2.9,2.335,2.335,0,0,0,.7.7,10.088,10.088,0,0,0,1.5.7,4.782,4.782,0,0,1,2.3,1.3A2.566,2.566,0,0,1,164.03,94.4Z" transform="translate(0 -0.036)" fill="#fff"/><rect width="160.829" height="1" transform="translate(3.4 78.467)" fill="#fff"/></g></svg>