<svg xmlns="http://www.w3.org/2000/svg" width="236.069" height="229.083" viewBox="0 0 236.069 229.083"><g transform="translate(80.357) rotate(30)" fill="none"><path d="M124.477,160.714a20.814,20.814,0,0,0,18.008-10.377l34.509-59.543a20.814,20.814,0,0,0,0-20.874L142.486,10.377A20.814,20.814,0,0,0,124.477,0H55.323A20.814,20.814,0,0,0,37.314,10.377L2.806,69.92a20.814,20.814,0,0,0,0,20.874l34.509,59.543a20.814,20.814,0,0,0,18.008,10.377Z" stroke="none"/><path d="M 124.4774856567383 148.7144317626953 C 127.6103744506836 148.7144317626953 130.5324401855469 147.0306091308594 132.1033782958984 144.3200073242188 L 166.6119842529297 84.77685546875 C 168.1919097900391 82.05075073242188 168.1919097900391 78.66371917724609 166.6119537353516 75.93757629394531 L 132.1034088134766 16.39443016052246 C 130.5324401855469 13.68385887145996 127.6103744506836 12.00000190734863 124.4774856567383 12.00000190734863 L 55.32266235351563 12.00003719329834 C 52.18973159790039 12.00003719329834 49.26766204833984 13.68385887145996 47.69676971435547 16.39446640014648 L 13.18816184997559 75.93764495849609 C 11.60819816589355 78.66374969482422 11.60819816589355 82.05075073242188 13.18816184997559 84.77689361572266 L 47.69676971435547 144.3200378417969 C 49.26766204833984 147.0306091308594 52.18976974487305 148.7144317626953 55.32266235351563 148.7144317626953 L 124.4774856567383 148.7144317626953 M 124.4774856567383 160.7144317626953 L 55.32266235351563 160.7144317626953 C 47.89876937866211 160.7144317626953 41.03691101074219 156.7602844238281 37.31437683105469 150.3371734619141 L 2.805804967880249 90.79407501220703 C -0.9352664947509766 84.33903503417969 -0.9352664947509766 76.37542724609375 2.805804967880249 69.92043304443359 L 37.31437683105469 10.37728691101074 C 41.03691101074219 3.954144477844238 47.89876937866211 3.730991738848388e-05 55.32266235351563 3.730991738848388e-05 L 124.4774856567383 1.595633420947706e-06 C 131.9013366699219 1.595633420947706e-06 138.7631988525391 3.954144477844238 142.4857635498047 10.37725162506104 L 176.9943389892578 69.92039489746094 C 180.7353820800781 76.37542724609375 180.7353820800781 84.33903503417969 176.9943389892578 90.79403686523438 L 142.4857330322266 150.3371734619141 C 138.7631988525391 156.7602844238281 131.9013366699219 160.7144317626953 124.4774856567383 160.7144317626953 Z" stroke="none" fill="#e97300"/></g></svg>