<svg xmlns="http://www.w3.org/2000/svg" xmlns:xlink="http://www.w3.org/1999/xlink" width="528.212" height="174.203" viewBox="0 0 528.212 174.203"><defs><linearGradient id="a" y1="0.5" x2="1" y2="0.5" gradientUnits="objectBoundingBox"><stop offset="0" stop-color="#f15a29"/><stop offset="1" stop-color="#f7941d"/></linearGradient></defs><g transform="translate(-1167.171 -769.358)"><g transform="matrix(0.875, 0.485, -0.485, 0.875, 2116.16, -811.955)" opacity="0.3"><path d="M819.13-233.09,800-250.921v26.132A11.487,11.487,0,0,0,811.4-213.208,11.486,11.486,0,0,0,822.978-224.6c0-.063,0-.127,0-.189A11,11,0,0,0,819.13-233.09Zm-7.638,14.762a6.461,6.461,0,0,1-6.461-6.461h0v-14.645l10.682,9.964h0a5.887,5.887,0,0,1,2.1,4.394,6.46,6.46,0,0,1-6.167,6.743l-.151.005Z" transform="translate(-402.664 1914.292)" fill="#0962cc"/><path d="M711.88-224.789a11.487,11.487,0,0,0,11.392,11.581A11.486,11.486,0,0,0,734.853-224.6c0-.063,0-.127,0-.189v-26.132L715.728-233.09A11.141,11.141,0,0,0,711.88-224.789Zm7.121-4.48h0l10.826-10.167v14.646a6.461,6.461,0,0,1-6.461,6.461,6.461,6.461,0,0,1-6.461-6.461h0a5.885,5.885,0,0,1,2.1-4.48Z" transform="translate(-383.457 1914.292)" fill="#0962cc"/><path d="M764.227-268.34A17.23,17.23,0,0,0,747-251.11v22.974a17.23,17.23,0,0,0,17.23,17.23,17.23,17.23,0,0,0,17.23-17.23V-251.11a17.229,17.229,0,0,0-17.23-17.23Zm-12.2,22.6h24.409v12.2H752.023Zm12.2,29.806a12.263,12.263,0,0,1-12.2-12.2v-.373h24.409v.373A12.262,12.262,0,0,1,764.227-215.932Zm12.2-34.833H752.023v-.345a12.205,12.205,0,0,1,12.107-12.3,12.205,12.205,0,0,1,12.3,12.107c0,.065,0,.13,0,.2Zm-15.079-30.5a10.051,10.051,0,0,0-10.048-10.054,10.05,10.05,0,0,0-10.054,10.048A10.052,10.052,0,0,0,751.3-271.214h.006A10.051,10.051,0,0,0,761.353-281.262Zm-15.076,0a5.026,5.026,0,0,1,5.026-5.025,5.026,5.026,0,0,1,5.026,5.025,5.026,5.026,0,0,1-5.026,5.026,5.084,5.084,0,0,1-5.023-5.026Zm30.873-10.051A10.05,10.05,0,0,0,767.1-281.265a10.051,10.051,0,0,0,10.048,10.054A10.051,10.051,0,0,0,787.2-281.259v0A10.05,10.05,0,0,0,777.15-291.313Zm0,15.076a5.026,5.026,0,0,1-5.026-5.026,5.026,5.026,0,0,1,5.026-5.026,5.026,5.026,0,0,1,5.026,5.026A5.084,5.084,0,0,1,777.15-276.237Z" transform="translate(-389.859 1923.097)" fill="url(#a)"/><rect width="91.871" height="91.871" transform="translate(328.338 1626)" fill="none"/></g><path d="M5587.2,14110.667s-59.767,81.617-165.2,60.927-112.616-133.376-272-82.6" transform="translate(-3982.525 -13232.469)" fill="none" stroke="#0962cc" stroke-width="2" stroke-dasharray="8" opacity="0.3"/></g></svg>