<svg xmlns="http://www.w3.org/2000/svg" width="15.528" height="12.636" viewBox="0 0 15.528 12.636">
  <g id="Group_3576" data-name="Group 3576" transform="translate(-8.93 -12.323)">
    <path id="Icon_ionic-logo-twitter" data-name="Icon ionic-logo-twitter" d="M16.941,6a6.441,6.441,0,0,1-1.83.5,3.2,3.2,0,0,0,1.4-1.764,6.33,6.33,0,0,1-2.024.773A3.185,3.185,0,0,0,8.978,7.689a3.119,3.119,0,0,0,.082.727A9.028,9.028,0,0,1,2.493,5.082a3.192,3.192,0,0,0,.99,4.258,3.112,3.112,0,0,1-1.448-.4v.039a3.189,3.189,0,0,0,2.557,3.126,3.207,3.207,0,0,1-.839.112,3.005,3.005,0,0,1-.6-.059,3.191,3.191,0,0,0,2.978,2.215,6.387,6.387,0,0,1-3.959,1.366,6.458,6.458,0,0,1-.76-.046A8.9,8.9,0,0,0,6.29,17.136,9.011,9.011,0,0,0,15.362,8.06c0-.138,0-.276-.01-.411A6.485,6.485,0,0,0,16.941,6Z" transform="translate(7.516 7.823)"/>
  </g>
</svg>
